<svg width="32" height="32" viewBox="0 0 32 32" fill="none" xmlns="http://www.w3.org/2000/svg">
  <rect width="32" height="32" rx="8" fill="#6366F1"/>
  <path d="M8 12C8 10.9391 8.42143 9.92172 9.17157 9.17157C9.92172 8.42143 10.9391 8 12 8H20C21.0609 8 22.0783 8.42143 22.8284 9.17157C23.5786 9.92172 24 10.9391 24 12V20C24 21.0609 23.5786 22.0783 22.8284 22.8284C22.0783 23.5786 21.0609 24 20 24H12C10.9391 24 9.92172 23.5786 9.17157 22.8284C8.42143 22.0783 8 21.0609 8 20V12Z" fill="white" fill-opacity="0.2"/>
  <path d="M16 12C16.5523 12 17 12.4477 17 13V19C17 19.5523 16.5523 20 16 20C15.4477 20 15 19.5523 15 19V13C15 12.4477 15.4477 12 16 12Z" fill="white"/>
  <path d="M12 14C12.5523 14 13 14.4477 13 15V19C13 19.5523 12.5523 20 12 20C11.4477 20 11 19.5523 11 19V15C11 14.4477 11.4477 14 12 14Z" fill="white"/>
  <path d="M20 14C20.5523 14 21 14.4477 21 15V19C21 19.5523 20.5523 20 20 20C19.4477 20 19 19.5523 19 19V15C19 14.4477 19.4477 14 20 14Z" fill="white"/>
  <circle cx="16" cy="16" r="1" fill="white"/>
</svg>
