<svg id="svg" version="1.1" xmlns="http://www.w3.org/2000/svg" xmlns:xlink="http://www.w3.org/1999/xlink" width="400" height="400" viewBox="0, 0, 400,400"><g id="svgg"><path id="path0" d="M0.000 200.000 L 0.000 400.000 200.000 400.000 L 400.000 400.000 400.000 200.000 L 400.000 0.000 200.000 0.000 L 0.000 0.000 0.000 200.000 M202.930 96.291 C 207.835 97.321,212.050 99.890,215.347 103.861 L 216.436 105.173 218.667 104.564 C 230.468 101.343,242.050 108.551,244.232 120.475 C 244.714 123.109,244.766 123.193,246.351 123.895 C 250.409 125.692,254.145 129.569,255.901 133.805 C 256.982 136.413,259.056 137.674,265.835 139.844 C 272.368 141.935,275.118 142.972,276.928 144.029 C 289.005 151.077,285.031 164.545,270.851 164.626 L 266.897 164.648 268.787 166.717 C 273.278 171.630,275.333 178.749,274.032 184.888 L 273.468 187.549 275.218 189.697 C 278.457 193.674,280.859 199.859,280.859 204.222 L 280.859 205.751 282.715 205.969 C 290.759 206.917,297.452 199.410,293.645 193.710 C 291.154 189.982,285.156 190.450,285.156 194.373 C 285.156 196.579,288.107 197.879,289.063 196.094 C 289.863 194.598,291.406 195.606,291.406 197.624 C 291.406 201.515,284.940 202.225,282.203 198.636 C 277.665 192.687,285.130 184.249,292.286 187.239 C 305.199 192.635,298.644 210.093,283.626 210.301 C 280.716 210.341,279.916 210.474,279.793 210.938 C 279.707 211.260,279.187 212.627,278.637 213.976 L 277.637 216.428 278.630 218.663 C 282.893 228.261,280.216 239.648,272.307 245.553 L 270.411 246.968 270.225 250.926 C 269.764 260.732,263.657 269.313,254.883 272.484 L 252.539 273.331 251.260 277.388 C 244.790 297.913,240.281 303.872,230.950 304.231 C 220.552 304.632,216.724 300.683,215.794 288.597 L 215.563 285.593 213.634 286.979 C 207.254 291.562,196.868 291.614,190.213 287.095 C 187.667 285.366,187.503 285.411,187.492 287.858 C 187.449 297.859,183.818 303.023,175.911 304.329 C 165.393 306.066,159.451 300.227,153.533 282.341 C 151.874 277.325,151.029 276.159,149.883 277.305 C 149.646 277.541,148.961 277.734,148.359 277.734 C 147.508 277.734,147.266 277.916,147.266 278.557 C 147.266 279.157,147.093 279.314,146.630 279.137 C 146.253 278.992,145.794 279.167,145.500 279.568 C 145.229 279.940,144.504 280.273,143.890 280.307 C 143.276 280.342,142.817 280.569,142.871 280.811 C 142.925 281.052,142.837 281.229,142.676 281.204 C 141.839 281.072,141.406 281.320,141.400 281.934 C 141.396 282.431,141.308 282.482,141.079 282.121 C 140.837 281.739,140.546 281.813,139.828 282.435 C 138.976 283.174,138.872 283.187,138.660 282.583 C 138.456 282.002,138.331 282.038,137.670 282.871 C 137.080 283.613,136.528 283.830,135.156 283.857 C 134.189 283.876,132.256 283.924,130.859 283.965 C 129.463 284.005,127.640 283.943,126.808 283.828 C 125.976 283.712,125.007 283.772,124.654 283.961 C 124.236 284.184,123.749 284.111,123.256 283.751 C 122.734 283.369,122.068 283.284,121.113 283.475 C 118.515 283.996,114.299 283.839,113.782 283.203 C 113.450 282.795,113.302 282.765,113.294 283.105 C 113.271 283.990,112.500 283.614,112.494 282.715 C 112.491 282.205,112.368 282.018,112.201 282.271 C 111.906 282.718,110.466 282.416,110.518 281.918 C 110.614 280.993,110.446 280.772,110.156 281.445 C 109.972 281.875,109.808 282.012,109.793 281.751 C 109.778 281.489,109.546 281.328,109.277 281.394 C 109.009 281.459,108.921 281.439,109.082 281.349 C 109.735 280.983,109.316 280.188,108.496 280.237 C 108.013 280.266,107.383 280.064,107.097 279.789 C 106.812 279.515,106.431 279.380,106.252 279.491 C 106.073 279.602,105.843 279.472,105.742 279.202 C 105.613 278.856,105.390 278.930,104.988 279.453 C 104.447 280.156,104.405 280.129,104.167 278.938 C 104.028 278.248,103.782 277.760,103.618 277.854 C 103.454 277.948,102.969 277.669,102.539 277.234 C 102.109 276.799,101.978 276.568,102.246 276.721 C 102.515 276.874,102.734 276.799,102.734 276.555 C 102.734 276.266,102.333 276.198,101.595 276.360 C 100.772 276.541,100.360 276.439,100.111 275.993 C 99.921 275.654,99.159 275.043,98.418 274.636 C 97.677 274.230,97.112 273.712,97.163 273.486 C 97.214 273.260,97.008 273.170,96.705 273.287 C 95.827 273.624,94.868 271.610,95.670 271.114 C 95.948 270.942,95.820 270.557,95.298 269.996 C 94.859 269.526,94.636 269.141,94.802 269.141 C 94.968 269.141,94.443 268.692,93.635 268.143 C 92.828 267.594,92.262 266.992,92.378 266.805 C 92.661 266.347,91.780 264.468,91.246 264.394 C 91.012 264.361,90.645 264.293,90.430 264.243 C 90.215 264.193,89.863 264.130,89.648 264.102 C 89.434 264.074,89.519 263.885,89.839 263.683 C 90.322 263.378,90.195 263.083,89.095 261.947 C 87.937 260.753,87.836 260.497,88.303 259.935 C 88.758 259.386,88.749 259.224,88.237 258.844 C 87.537 258.324,86.719 256.151,86.719 254.812 C 86.719 254.300,86.455 253.781,86.133 253.657 C 85.763 253.515,85.609 253.089,85.715 252.504 C 85.808 251.993,85.693 251.457,85.460 251.313 C 85.206 251.157,85.148 251.233,85.314 251.502 C 85.468 251.750,85.385 251.953,85.130 251.953 C 84.820 251.953,84.749 251.548,84.915 250.718 C 85.093 249.830,84.969 249.262,84.476 248.698 C 83.815 247.944,83.819 247.924,84.570 248.177 C 85.237 248.401,85.265 248.367,84.766 247.949 C 83.034 246.499,83.571 233.911,85.407 232.883 C 85.894 232.611,85.936 232.368,85.605 231.749 C 85.373 231.316,85.295 230.851,85.430 230.715 C 85.566 230.580,85.428 230.466,85.124 230.463 C 84.651 230.458,84.650 230.406,85.117 230.111 C 85.417 229.920,85.686 229.352,85.714 228.847 C 85.742 228.343,85.921 227.680,86.111 227.375 C 86.380 226.943,86.293 226.883,85.718 227.104 C 85.040 227.364,85.046 227.313,85.793 226.487 C 86.241 225.991,87.100 224.663,87.702 223.535 C 88.304 222.407,88.944 221.484,89.125 221.484 C 89.305 221.484,89.453 221.256,89.453 220.977 C 89.453 220.697,89.662 220.260,89.918 220.004 C 90.475 219.447,90.714 218.538,90.682 217.103 C 90.669 216.519,90.830 215.935,91.039 215.806 C 91.248 215.677,91.301 215.380,91.157 215.147 C 91.001 214.895,91.077 214.835,91.343 215.000 C 91.852 215.315,93.048 214.760,93.020 214.223 C 93.009 214.027,93.320 213.878,93.710 213.892 C 94.229 213.911,94.366 213.710,94.219 213.147 C 94.052 212.510,94.167 212.416,94.882 212.603 C 95.547 212.777,95.829 212.611,96.106 211.883 C 96.303 211.363,96.723 210.938,97.038 210.938 C 97.909 210.938,98.840 209.361,98.580 208.327 C 98.365 207.472,98.708 207.200,99.756 207.392 C 99.944 207.426,100.428 207.155,100.833 206.790 C 101.237 206.424,101.684 206.241,101.826 206.383 C 102.207 206.765,103.516 205.455,103.516 204.692 C 103.516 203.756,103.945 203.452,104.554 203.957 C 104.939 204.277,105.078 204.277,105.078 203.954 C 105.078 203.713,105.611 203.516,106.262 203.516 C 106.954 203.516,107.540 203.272,107.671 202.930 C 107.916 202.292,109.375 202.110,109.375 202.716 C 109.375 203.071,112.056 202.918,112.432 202.542 C 112.531 202.443,112.385 202.090,112.109 201.758 C 111.833 201.425,111.720 201.040,111.858 200.902 C 111.996 200.764,112.109 200.840,112.109 201.070 C 112.109 201.301,112.461 201.397,112.891 201.285 C 113.320 201.173,113.672 200.930,113.672 200.745 C 113.672 200.561,114.199 200.516,114.844 200.645 C 115.785 200.833,116.016 200.746,116.016 200.202 C 116.016 199.782,115.808 199.606,115.468 199.736 C 114.699 200.031,114.376 199.588,114.899 198.957 C 115.471 198.267,116.406 198.984,116.406 200.113 C 116.406 200.552,116.522 200.796,116.663 200.654 C 116.805 200.513,117.156 200.593,117.445 200.832 C 118.599 201.791,117.935 199.912,116.631 198.530 C 110.392 191.916,115.291 180.169,124.752 179.057 L 126.879 178.807 127.136 177.095 C 127.640 173.734,130.204 169.454,133.607 166.292 C 137.373 162.794,137.371 162.802,134.082 163.778 C 123.337 166.965,113.711 162.390,113.680 154.081 C 113.658 147.839,117.449 144.580,129.322 140.638 C 138.564 137.569,139.671 136.867,141.665 132.813 C 143.594 128.890,146.804 125.634,150.190 124.169 C 151.774 123.483,152.332 123.035,152.337 122.445 C 152.433 110.926,166.349 101.142,177.871 104.492 L 180.098 105.139 182.807 102.403 C 188.209 96.948,195.504 94.732,202.930 96.291 M193.759 101.017 C 189.973 102.034,185.751 105.097,183.923 108.153 C 182.202 111.028,182.354 110.982,178.987 109.651 C 168.385 105.462,157.865 112.030,157.133 123.294 L 156.927 126.470 155.319 126.951 C 144.978 130.043,141.377 140.769,147.558 150.064 L 149.352 152.763 148.407 153.397 C 144.130 156.264,141.721 160.633,141.666 165.625 C 141.615 170.279,142.047 171.267,147.290 178.485 C 149.799 181.939,149.137 182.513,145.017 180.455 C 141.418 178.656,137.501 173.435,137.500 170.433 C 137.499 167.012,133.019 172.791,131.877 177.687 C 131.226 180.479,131.469 180.850,133.965 180.881 C 137.794 180.929,139.734 182.358,137.332 183.362 C 136.565 183.682,135.938 183.997,135.939 184.062 C 135.940 184.127,136.376 185.234,136.907 186.523 C 137.503 187.971,137.876 189.648,137.881 190.910 L 137.891 192.952 138.886 192.498 C 139.696 192.130,139.772 191.983,139.293 191.715 C 138.969 191.534,138.802 191.131,138.921 190.820 C 139.181 190.143,140.225 190.968,140.247 191.867 C 140.262 192.493,141.175 193.750,141.614 193.750 C 141.788 193.750,142.263 194.051,142.669 194.418 C 143.303 194.992,143.457 195.006,143.758 194.519 C 144.037 194.067,144.207 194.051,144.593 194.437 C 145.172 195.016,145.851 195.086,145.508 194.531 C 145.167 193.979,146.231 194.044,146.797 194.609 C 147.055 194.867,147.266 194.939,147.266 194.770 C 147.266 194.600,147.813 194.922,148.481 195.485 C 149.452 196.302,149.809 196.414,150.256 196.043 C 150.701 195.674,150.924 195.731,151.342 196.325 C 151.632 196.735,152.503 197.721,153.278 198.516 C 154.053 199.311,154.688 200.234,154.688 200.567 C 154.688 200.899,154.863 201.172,155.078 201.172 C 155.675 201.172,155.547 200.596,154.717 199.540 C 154.286 198.993,154.092 198.378,154.263 198.102 C 154.682 197.424,155.288 198.258,155.610 199.955 C 155.748 200.682,156.239 201.605,156.701 202.006 C 157.163 202.406,157.383 202.740,157.189 202.746 C 156.995 202.753,157.144 202.937,157.520 203.156 C 157.896 203.375,158.203 203.715,158.203 203.912 C 158.203 204.448,160.449 206.641,160.997 206.641 C 161.260 206.641,161.002 206.148,160.425 205.545 C 159.847 204.942,159.375 204.227,159.375 203.955 C 159.375 203.683,159.990 204.112,160.742 204.910 C 161.494 205.707,162.112 206.203,162.115 206.012 C 162.119 205.820,162.281 205.916,162.476 206.225 C 162.778 206.701,162.928 206.705,163.477 206.250 C 164.266 205.595,165.073 206.480,164.412 207.276 C 164.172 207.566,164.165 207.830,164.393 207.971 C 164.596 208.096,164.867 207.925,164.995 207.590 C 165.315 206.758,166.130 207.333,165.897 208.226 C 165.764 208.733,165.951 208.976,166.542 209.060 C 167.020 209.129,167.427 209.513,167.497 209.961 C 167.596 210.591,167.545 210.631,167.230 210.168 C 167.015 209.852,166.698 209.734,166.526 209.907 C 166.353 210.079,166.551 210.468,166.966 210.771 C 167.706 211.312,167.704 211.339,166.868 212.229 C 165.859 213.303,165.797 213.672,166.625 213.672 C 166.960 213.672,167.132 213.508,167.009 213.308 C 166.885 213.108,166.944 212.846,167.140 212.725 C 167.678 212.392,167.971 213.513,167.476 214.008 C 166.846 214.639,167.453 215.043,168.155 214.461 C 168.562 214.123,168.750 214.105,168.750 214.405 C 168.750 214.646,168.574 214.844,168.359 214.844 C 168.145 214.844,167.969 215.020,167.969 215.234 C 167.969 215.449,168.211 215.625,168.507 215.625 C 168.803 215.625,169.271 215.897,169.547 216.229 C 169.949 216.715,170.118 216.734,170.401 216.327 C 170.634 215.992,170.670 216.119,170.507 216.700 C 170.350 217.258,170.484 217.806,170.874 218.195 C 171.246 218.567,171.416 219.211,171.305 219.824 C 170.955 221.754,172.753 224.283,173.961 223.559 C 174.210 223.410,174.150 223.618,173.828 224.022 C 173.297 224.688,173.306 224.732,173.926 224.499 C 174.617 224.240,174.621 224.249,174.798 226.758 C 174.829 227.188,175.062 227.495,175.317 227.441 C 175.866 227.326,175.941 227.980,175.417 228.304 C 175.213 228.430,175.125 230.182,175.217 232.274 C 175.352 235.341,175.285 235.980,174.844 235.811 C 174.412 235.646,174.295 236.335,174.251 239.287 C 174.200 242.687,174.253 242.969,174.952 242.969 C 175.516 242.969,175.656 243.167,175.504 243.750 C 175.391 244.180,175.132 244.531,174.927 244.531 C 174.723 244.531,174.611 244.927,174.680 245.410 C 174.782 246.131,175.016 246.268,175.977 246.172 C 176.979 246.072,177.351 246.326,178.549 247.930 C 181.424 251.780,186.867 253.327,192.028 251.762 C 194.467 251.022,194.531 251.026,194.531 251.908 C 194.531 253.123,191.665 255.372,189.205 256.087 C 184.514 257.451,179.735 256.050,176.487 252.361 C 174.681 250.309,174.079 250.602,173.605 253.760 C 173.465 254.695,173.191 255.363,172.997 255.242 C 172.802 255.122,172.745 254.861,172.868 254.661 C 172.992 254.461,172.907 254.297,172.679 254.297 C 172.452 254.297,172.233 254.868,172.193 255.566 C 172.019 258.594,171.949 259.238,171.682 260.254 C 171.488 260.993,171.548 261.328,171.876 261.328 C 172.138 261.328,171.942 261.660,171.441 262.066 C 170.603 262.744,170.491 262.752,170.043 262.163 C 169.595 261.574,169.555 261.574,169.544 262.159 C 169.527 263.028,170.466 263.738,171.240 263.442 C 172.131 263.099,172.031 263.800,171.063 264.677 C 170.166 265.488,170.281 268.384,171.249 269.352 C 174.148 272.251,180.609 272.871,186.636 270.829 L 189.482 269.865 191.174 270.856 C 198.327 275.048,206.561 274.746,212.930 270.058 L 215.332 268.289 217.805 268.910 C 225.551 270.856,232.976 268.549,236.967 262.956 C 239.238 259.774,239.252 259.766,241.921 259.766 C 251.230 259.766,257.663 253.212,258.113 243.271 L 258.303 239.081 260.377 237.515 C 266.966 232.540,268.957 223.846,265.228 216.331 L 264.051 213.959 264.838 212.741 C 269.654 205.292,269.418 197.067,264.224 191.317 C 262.836 189.781,262.835 189.778,263.135 187.175 C 263.755 181.777,262.815 178.071,259.998 174.805 C 258.863 173.488,259.098 173.350,256.742 176.718 C 254.979 179.239,249.515 182.458,248.583 181.526 C 248.259 181.202,250.021 178.248,251.800 176.132 C 257.133 169.790,256.761 161.361,250.891 155.490 C 247.556 152.155,247.603 153.056,250.515 148.296 C 255.471 140.196,251.800 130.549,242.502 127.240 L 240.039 126.364 239.808 123.241 C 238.982 112.082,228.131 105.242,217.999 109.494 C 214.730 110.866,214.741 110.868,213.300 108.624 C 209.106 102.087,201.212 99.014,193.759 101.017 M169.034 139.757 C 173.588 140.021,176.930 139.144,180.762 136.681 L 182.032 135.865 183.987 137.624 C 192.254 145.056,203.823 145.267,212.226 138.138 C 215.269 135.557,214.852 135.656,216.784 137.055 C 221.845 140.722,233.261 140.610,236.370 136.863 C 237.194 135.871,239.014 136.196,239.314 137.388 C 239.693 138.900,238.901 142.231,237.714 144.110 L 236.700 145.717 237.857 149.714 C 242.292 165.036,244.160 182.339,242.230 190.234 C 236.098 215.328,199.072 226.306,172.461 210.921 C 165.814 207.078,162.592 203.665,158.464 196.094 C 153.172 186.390,153.409 167.543,159.044 149.845 C 160.008 146.819,160.178 145.843,159.829 145.353 C 155.308 139.005,156.775 134.839,162.490 137.796 C 165.527 139.367,166.300 139.599,169.034 139.757 M138.211 142.200 C 137.420 142.618,134.256 143.818,131.179 144.868 C 124.062 147.296,122.066 148.246,120.231 150.081 C 117.991 152.321,118.328 153.236,120.608 151.103 C 122.725 149.123,125.535 147.694,129.498 146.584 C 133.304 145.517,139.844 142.579,139.844 141.936 C 139.844 141.294,139.962 141.275,138.211 142.200 M257.428 141.884 C 257.434 142.467,261.834 144.555,265.566 145.746 C 271.882 147.764,272.991 148.216,275.349 149.731 C 276.722 150.614,278.172 151.871,278.570 152.524 C 278.968 153.177,279.295 153.526,279.295 153.299 C 279.305 150.482,275.324 147.901,266.207 144.814 C 262.771 143.652,259.390 142.405,258.691 142.043 C 257.747 141.554,257.423 141.514,257.428 141.884 M114.453 205.078 C 113.707 205.560,114.510 205.560,116.016 205.078 L 116.992 204.765 116.016 204.732 C 115.479 204.714,114.775 204.870,114.453 205.078 M113.118 213.375 C 108.556 218.222,108.474 218.359,110.158 218.359 C 111.126 218.359,111.623 217.975,112.990 216.168 C 117.708 209.935,117.888 209.850,126.465 209.794 C 129.115 209.777,130.859 209.611,130.859 209.375 C 130.859 209.130,128.331 208.984,124.055 208.984 L 117.251 208.984 113.118 213.375 M173.195 222.342 C 173.038 222.596,171.875 222.348,171.875 222.060 C 171.875 221.108,172.402 220.740,172.863 221.371 C 173.141 221.751,173.290 222.188,173.195 222.342 M253.287 226.629 C 258.744 233.004,255.961 242.706,247.825 245.673 C 245.516 246.515,245.498 246.534,244.838 248.772 C 242.769 255.792,232.982 259.410,227.683 255.114 C 226.466 254.127,226.742 253.935,229.725 253.696 C 236.522 253.151,240.068 250.498,241.395 244.968 C 241.838 243.124,241.928 243.029,243.637 242.598 C 250.605 240.843,253.921 234.491,251.453 227.623 C 250.296 224.403,251.037 224.001,253.287 226.629 M127.643 242.412 C 127.530 248.152,127.529 254.317,127.641 256.112 L 127.844 259.375 130.036 259.369 C 131.404 259.365,132.028 259.237,131.699 259.029 C 131.092 258.644,133.410 256.641,134.462 256.641 C 135.456 256.641,137.086 253.477,137.104 251.513 C 137.107 251.163,137.377 250.655,137.705 250.383 C 138.032 250.111,138.210 249.798,138.099 249.687 C 137.754 249.343,138.737 248.432,139.167 248.697 C 139.392 248.836,139.458 248.762,139.316 248.531 C 139.174 248.302,139.218 248.055,139.413 247.983 C 139.608 247.911,139.853 246.931,139.957 245.805 C 140.060 244.680,140.003 243.847,139.830 243.954 C 139.658 244.060,139.301 243.487,139.038 242.679 C 138.002 239.501,131.522 232.897,128.758 232.204 L 127.850 231.975 127.643 242.412 M122.922 233.893 C 122.746 234.165,122.439 234.287,122.239 234.163 C 122.039 234.039,121.875 234.109,121.875 234.317 C 121.875 234.525,121.040 235.098,120.020 235.589 C 118.316 236.410,116.803 237.500,117.368 237.500 C 117.498 237.500,116.983 238.121,116.224 238.880 C 115.465 239.639,114.844 240.499,114.844 240.792 C 114.844 241.084,114.578 241.424,114.254 241.549 C 113.930 241.673,113.703 241.912,113.749 242.079 C 113.914 242.675,112.410 246.543,111.943 246.723 C 110.778 247.170,112.081 251.508,113.421 251.639 C 114.206 251.716,114.782 252.063,115.061 252.626 C 115.298 253.104,116.312 254.158,117.314 254.970 C 119.032 256.360,119.398 257.132,119.170 258.887 C 119.126 259.225,119.759 259.375,121.236 259.375 L 123.365 259.375 123.499 250.098 C 123.648 239.758,123.412 233.135,122.922 233.893 M175.391 238.359 C 175.391 239.164,175.256 239.475,175.013 239.232 C 174.805 239.024,174.738 238.461,174.863 237.982 C 175.185 236.751,175.391 236.899,175.391 238.359 M105.106 238.704 C 105.121 239.224,105.292 240.000,105.487 240.430 C 105.734 240.974,105.769 240.737,105.603 239.648 C 105.327 237.835,105.066 237.339,105.106 238.704 M106.840 249.749 C 106.512 250.950,107.226 254.911,107.839 255.290 C 108.343 255.602,108.266 253.764,107.657 250.977 C 107.187 248.822,107.121 248.723,106.840 249.749 M109.640 263.928 C 109.494 264.074,109.375 264.341,109.375 264.523 C 109.375 264.704,116.714 264.806,125.684 264.750 C 136.310 264.684,141.958 264.512,141.895 264.258 C 141.784 263.815,110.077 263.491,109.640 263.928 M160.547 287.647 C 160.547 288.005,162.510 292.188,162.678 292.188 C 162.782 292.188,162.758 291.880,162.625 291.504 C 161.811 289.189,160.547 286.844,160.547 287.647 M237.060 296.743 C 236.765 297.100,235.996 297.715,235.352 298.109 C 234.686 298.516,234.442 298.826,234.787 298.827 C 235.120 298.827,235.990 298.213,236.719 297.461 C 237.448 296.709,237.943 296.094,237.820 296.094 C 237.697 296.094,237.354 296.386,237.060 296.743 M223.523 297.864 C 224.108 298.479,224.656 298.903,224.741 298.807 C 224.827 298.711,224.349 298.208,223.679 297.690 L 222.461 296.747 223.523 297.864 M166.797 297.788 C 167.558 298.584,170.313 299.730,170.313 299.250 C 170.313 298.948,169.237 298.396,168.359 298.248 C 168.252 298.229,167.725 297.980,167.188 297.694 C 166.304 297.224,166.267 297.233,166.797 297.788 " stroke="none" fill="#f8f9f5" fill-rule="evenodd"></path><path id="path1" d="M192.969 96.687 C 189.029 97.767,185.923 99.615,182.917 102.667 L 180.091 105.536 178.034 104.819 C 167.749 101.234,155.171 108.958,153.067 120.152 C 152.828 121.422,152.584 122.652,152.525 122.885 C 152.466 123.119,151.426 123.795,150.213 124.388 C 146.617 126.147,143.583 129.266,141.769 133.066 C 139.891 137.000,138.497 137.861,128.824 141.055 C 118.168 144.574,114.719 147.364,113.883 153.137 C 112.596 162.037,123.085 166.776,135.840 163.056 C 137.402 162.600,136.805 163.553,133.447 166.878 C 129.834 170.455,128.330 172.973,127.566 176.719 L 127.081 179.102 124.713 179.367 C 115.240 180.426,110.613 192.334,117.216 198.660 C 118.257 199.658,118.359 199.989,118.359 202.370 L 118.359 204.985 116.516 205.449 C 114.601 205.932,111.536 208.796,105.569 215.680 C 103.968 217.528,102.963 218.347,102.081 218.524 C 96.834 219.582,97.384 226.968,102.806 228.266 C 104.117 228.580,103.801 227.327,106.817 244.170 C 109.749 260.545,109.693 259.992,108.442 260.306 C 104.376 261.326,103.696 267.755,107.393 270.217 L 108.732 271.109 125.876 271.086 L 143.020 271.062 145.103 272.966 C 146.943 274.647,150.816 276.953,151.801 276.953 C 151.997 276.953,152.992 279.546,154.013 282.715 C 159.402 299.448,164.755 304.948,174.902 304.181 C 182.669 303.593,186.096 299.529,187.106 289.707 C 187.610 284.808,187.460 284.937,190.375 286.892 C 197.236 291.492,207.990 291.229,214.137 286.310 C 216.018 284.805,216.016 284.804,216.016 287.276 C 216.016 299.016,220.205 304.102,229.875 304.102 C 239.744 304.102,245.089 297.383,250.809 277.789 C 251.922 273.975,252.244 273.296,253.103 272.955 C 263.932 268.653,270.045 260.409,269.993 250.178 L 269.976 247.037 272.070 245.417 C 280.067 239.229,282.560 228.859,278.450 218.878 L 277.296 216.077 278.148 214.408 C 278.617 213.489,279.209 212.134,279.464 211.397 L 279.929 210.056 284.007 210.001 C 298.228 209.812,304.511 193.715,292.695 187.741 C 286.187 184.451,278.278 192.007,282.007 197.953 C 284.509 201.942,291.016 201.553,291.016 197.414 C 291.016 195.751,290.054 195.229,289.211 196.433 C 287.949 198.234,284.766 196.732,284.766 194.336 C 284.766 190.076,291.713 189.784,294.037 193.945 C 297.180 199.574,291.811 206.250,284.142 206.250 C 280.646 206.250,280.469 206.130,280.469 203.759 C 280.469 199.359,277.964 193.162,274.678 189.428 L 273.120 187.659 273.669 185.541 C 275.287 179.304,273.252 172.035,268.407 166.747 L 266.095 164.225 269.742 164.385 C 276.972 164.701,281.924 161.965,283.417 156.828 C 285.484 149.720,280.800 144.946,267.518 140.625 C 258.651 137.740,256.796 136.688,255.687 133.918 C 253.944 129.565,251.276 126.739,246.682 124.381 L 244.336 123.177 244.067 121.042 C 242.603 109.426,228.953 100.817,218.368 104.833 L 216.618 105.497 214.461 103.185 C 209.005 97.335,200.253 94.689,192.969 96.687 M201.323 100.381 C 206.081 101.160,210.435 104.011,213.293 108.220 L 214.837 110.495 217.178 109.543 C 228.392 104.987,239.110 111.439,240.174 123.385 L 240.430 126.261 242.883 127.148 C 252.868 130.758,256.043 141.448,249.758 150.289 C 248.465 152.108,248.109 153.125,248.767 153.125 C 249.705 153.125,253.273 157.257,254.413 159.664 C 257.156 165.454,256.169 170.914,251.182 177.539 C 248.089 181.648,248.184 182.108,251.778 180.418 C 255.863 178.498,258.919 173.957,259.800 168.500 L 260.262 165.634 261.796 166.497 C 268.024 169.997,271.223 178.239,269.338 185.930 C 268.579 189.028,268.375 188.421,271.276 191.705 C 276.645 197.783,277.736 205.444,274.270 212.737 L 272.584 216.286 273.748 218.592 C 278.518 228.042,276.161 237.957,267.808 243.589 L 265.889 244.883 265.834 249.492 C 265.690 261.574,256.906 270.237,244.727 270.311 C 242.784 270.322,242.766 270.335,241.409 272.495 C 236.261 280.693,227.320 283.999,218.161 281.091 L 215.199 280.150 213.444 281.669 C 206.050 288.068,198.400 287.880,189.223 281.072 C 188.886 280.822,187.904 280.985,186.254 281.567 C 178.450 284.317,171.562 282.346,165.726 275.691 L 164.460 274.247 161.979 274.479 C 156.907 274.953,151.647 273.280,148.056 270.051 L 146.235 268.414 146.394 266.141 C 146.587 263.386,145.573 261.553,143.218 260.399 C 141.843 259.725,141.740 259.564,141.967 258.445 C 142.103 257.775,143.184 251.692,144.369 244.928 C 147.309 228.143,147.259 228.346,148.445 228.204 C 153.918 227.550,154.626 219.718,149.311 218.626 C 148.574 218.475,146.620 216.640,143.025 212.725 C 137.838 207.077,136.331 205.800,134.277 205.316 C 132.459 204.888,132.655 200.294,134.571 198.437 C 137.463 195.633,138.330 190.276,136.520 186.388 C 135.426 184.038,135.453 183.889,137.101 183.207 C 139.237 182.322,137.523 181.250,133.974 181.250 C 131.576 181.250,131.066 180.649,131.397 178.217 C 131.747 175.649,133.373 172.504,135.459 170.363 L 137.221 168.555 137.704 170.386 C 138.891 174.881,141.289 178.110,144.849 180.008 C 148.757 182.091,149.255 181.718,146.885 178.485 C 142.055 171.897,141.385 170.381,141.364 165.996 C 141.342 161.313,142.954 157.760,146.554 154.553 L 148.824 152.531 147.506 150.677 C 141.564 142.320,144.321 130.696,152.982 127.583 C 156.765 126.223,156.641 126.325,156.641 124.597 C 156.641 111.703,168.700 104.723,181.314 110.316 C 181.813 110.538,182.330 110.064,183.545 108.275 C 187.688 102.174,194.312 99.233,201.323 100.381 M157.821 138.965 C 157.830 140.851,158.898 143.747,160.058 145.029 C 160.653 145.686,160.625 145.960,159.665 148.942 C 155.423 162.123,153.722 177.147,155.608 184.766 C 164.119 219.135,229.406 220.657,241.069 186.758 C 243.566 179.500,242.510 167.152,238.069 151.679 L 236.354 145.700 237.317 144.281 C 238.503 142.532,239.145 140.255,238.987 138.353 L 238.867 136.914 237.832 138.672 C 233.124 146.668,223.528 148.393,216.191 142.562 L 214.712 141.387 212.203 144.135 C 204.504 152.571,193.157 152.704,185.059 144.453 L 182.031 141.369 180.566 142.535 C 173.504 148.157,164.417 146.887,159.719 139.621 C 157.777 136.618,157.810 136.630,157.821 138.965 M140.260 143.950 C 140.540 145.685,141.251 147.913,141.998 149.397 L 143.261 151.909 142.326 152.787 C 141.812 153.271,140.856 154.500,140.202 155.519 C 136.856 160.734,122.869 161.878,119.218 157.236 C 115.668 152.722,119.122 148.838,130.133 144.963 C 133.648 143.727,137.227 142.340,138.086 141.882 C 138.945 141.425,139.680 141.042,139.718 141.033 C 139.756 141.023,140.000 142.336,140.260 143.950 M267.264 144.910 C 278.190 148.554,281.852 152.488,278.740 157.236 C 275.633 161.978,260.649 160.647,256.640 155.273 C 255.838 154.199,254.840 153.015,254.421 152.642 C 253.672 151.973,253.683 151.917,255.156 148.931 C 256.172 146.871,256.728 145.130,256.892 143.501 L 257.133 141.104 259.133 141.985 C 260.233 142.469,263.892 143.786,267.264 144.910 M183.726 149.039 C 192.292 156.572,205.171 156.443,213.527 148.740 L 215.246 147.155 217.877 148.361 C 221.971 150.237,224.952 150.640,228.729 149.830 C 230.438 149.464,232.092 149.132,232.406 149.094 C 234.021 148.895,238.290 169.053,238.274 176.808 C 238.231 198.991,212.674 212.583,184.422 205.448 C 168.020 201.305,158.984 190.937,158.984 176.257 C 158.984 167.508,162.754 148.877,164.480 149.094 C 164.787 149.132,166.394 149.455,168.049 149.810 C 171.788 150.614,175.084 150.203,178.641 148.491 C 181.719 147.010,181.377 146.973,183.726 149.039 M175.481 162.183 C 171.723 164.059,171.844 173.880,175.647 175.694 C 178.650 177.126,181.257 173.969,181.241 168.920 C 181.225 163.733,178.579 160.638,175.481 162.183 M218.313 162.290 C 214.694 164.313,214.912 173.927,218.616 175.694 C 221.619 177.126,224.226 173.969,224.210 168.920 C 224.193 163.614,221.454 160.535,218.313 162.290 M191.499 180.566 C 190.697 181.562,192.065 183.447,195.111 185.543 L 196.875 186.756 196.875 189.325 L 196.875 191.895 195.620 191.643 C 194.929 191.505,193.909 190.956,193.352 190.423 C 191.373 188.527,189.252 189.519,190.427 191.791 C 192.856 196.489,204.410 196.489,206.839 191.791 C 207.944 189.654,206.273 188.445,204.384 190.015 C 201.284 192.593,200.391 192.437,200.391 189.320 L 200.391 186.844 202.747 185.014 C 205.184 183.122,206.133 181.745,205.728 180.689 C 205.323 179.634,203.768 180.019,201.775 181.666 C 198.586 184.301,198.715 184.292,195.822 182.059 C 193.210 180.042,192.202 179.694,191.499 180.566 M129.455 184.088 C 135.151 187.346,134.953 195.052,129.105 197.709 C 121.024 201.380,114.131 191.182,120.570 185.081 C 122.788 182.979,126.743 182.537,129.455 184.088 M129.217 203.516 L 129.102 204.883 125.684 204.996 L 122.266 205.109 122.266 203.627 L 122.266 202.146 125.799 202.147 L 129.332 202.148 129.217 203.516 M138.383 213.371 L 142.977 218.164 134.406 218.269 C 129.692 218.327,121.866 218.327,117.015 218.269 L 108.194 218.164 112.789 213.371 L 117.383 208.578 125.586 208.578 L 133.789 208.578 138.383 213.371 M148.969 222.852 C 149.660 224.651,150.217 224.609,125.727 224.609 C 105.628 224.609,102.681 224.535,102.485 224.023 C 101.794 222.224,101.237 222.266,125.727 222.266 C 145.827 222.266,148.773 222.340,148.969 222.852 M121.741 228.516 L 123.837 228.516 123.735 244.043 L 123.633 259.570 118.782 259.681 C 113.024 259.811,113.499 260.161,112.524 255.073 C 111.787 251.227,107.813 228.960,107.813 228.676 C 107.813 228.455,114.899 228.235,117.342 228.379 C 118.609 228.454,120.589 228.516,121.741 228.516 M143.198 228.701 C 143.273 228.921,142.154 235.957,140.711 244.336 L 138.086 259.570 132.715 259.679 L 127.344 259.788 127.344 244.217 C 127.344 235.653,127.472 228.518,127.628 228.361 C 128.078 227.911,143.039 228.238,143.198 228.701 M142.417 264.255 C 143.238 265.508,142.869 267.102,141.693 267.388 C 141.213 267.505,133.796 267.551,125.210 267.491 L 109.600 267.383 109.022 266.354 C 108.504 265.430,108.514 265.219,109.114 264.303 L 109.784 263.281 125.781 263.281 L 141.779 263.281 142.417 264.255 M247.266 274.763 C 247.266 276.086,243.298 287.257,241.632 290.625 C 237.802 298.367,235.728 299.989,229.651 299.996 C 222.986 300.004,220.732 297.199,220.237 288.281 L 220.117 286.133 223.242 286.262 C 231.388 286.598,239.674 282.525,243.744 276.182 C 245.016 274.199,247.266 273.293,247.266 274.763 M165.076 280.866 C 169.195 284.821,174.155 286.719,180.372 286.719 L 183.294 286.719 183.031 289.355 C 182.228 297.422,179.948 300.004,173.566 300.073 C 166.328 300.153,162.252 295.326,158.083 281.738 L 157.095 278.516 159.862 278.516 L 162.629 278.516 165.076 280.866 " stroke="none" fill="#57385e" fill-rule="evenodd"></path><path id="path2" d="M223.730 103.791 C 224.214 103.884,225.005 103.884,225.488 103.791 C 225.972 103.698,225.576 103.622,224.609 103.622 C 223.643 103.622,223.247 103.698,223.730 103.791 M158.640 136.300 C 158.054 136.662,160.545 140.854,162.215 142.315 C 167.513 146.952,175.189 146.786,181.023 141.909 L 182.162 140.956 184.853 143.905 C 192.431 152.210,204.142 152.368,211.709 144.266 C 214.812 140.942,214.514 141.031,216.899 142.727 C 224.238 147.944,233.761 146.036,237.536 138.590 C 238.004 137.668,238.582 136.785,238.822 136.627 C 239.062 136.469,238.708 136.337,238.036 136.334 C 237.364 136.331,236.615 136.569,236.370 136.863 C 233.261 140.610,221.845 140.722,216.784 137.055 C 214.852 135.656,215.269 135.557,212.226 138.138 C 203.823 145.267,192.254 145.056,183.987 137.624 L 182.032 135.865 180.762 136.681 C 174.757 140.541,168.535 140.924,162.505 137.804 C 160.619 136.828,158.880 136.151,158.640 136.300 M135.547 144.303 C 133.506 145.217,130.693 146.276,129.297 146.657 C 125.605 147.663,122.713 149.134,120.669 151.046 C 119.681 151.970,118.786 152.640,118.679 152.533 C 118.406 152.260,118.329 155.134,118.588 155.957 C 118.706 156.333,119.065 156.641,119.385 156.641 C 119.706 156.641,119.867 156.804,119.743 157.004 C 119.620 157.204,119.692 157.475,119.904 157.606 C 120.116 157.737,120.401 157.400,120.538 156.856 C 121.086 154.672,124.236 152.725,130.728 150.560 C 137.810 148.198,140.367 146.665,140.083 144.950 C 139.956 144.183,139.850 143.335,139.848 143.066 C 139.842 142.395,139.742 142.424,135.547 144.303 M257.289 143.262 C 256.558 145.959,256.558 145.959,258.498 147.203 C 259.518 147.857,262.916 149.290,266.050 150.388 C 272.307 152.580,276.197 154.800,277.208 156.755 L 277.835 157.969 278.582 157.046 C 279.359 156.087,279.502 152.171,278.743 152.640 C 278.545 152.762,278.494 152.572,278.630 152.217 C 278.767 151.862,278.753 151.608,278.599 151.652 C 278.446 151.696,277.090 150.919,275.586 149.925 C 274.082 148.930,271.797 147.770,270.508 147.347 C 269.219 146.923,266.936 146.183,265.436 145.702 C 263.936 145.221,261.663 144.321,260.386 143.703 C 257.663 142.383,257.532 142.365,257.289 143.262 M232.428 150.488 C 232.425 151.079,232.598 151.563,232.813 151.563 C 233.306 151.563,233.306 150.764,232.813 150.000 C 232.517 149.543,232.433 149.651,232.428 150.488 M181.055 151.716 C 180.410 151.998,179.004 152.636,177.930 153.134 C 175.300 154.351,170.654 154.607,167.188 153.726 C 165.791 153.371,164.277 152.987,163.822 152.872 C 162.000 152.412,158.534 171.366,159.134 178.511 C 159.516 183.059,159.942 184.090,162.613 186.937 C 163.947 188.359,165.253 189.903,165.514 190.367 C 165.774 190.831,165.994 191.088,166.002 190.937 C 166.009 190.787,167.290 191.628,168.848 192.805 C 171.807 195.044,176.225 197.357,180.371 198.841 C 181.714 199.321,182.813 199.877,182.813 200.075 C 182.813 200.274,182.593 200.313,182.324 200.161 C 181.959 199.955,181.963 200.022,182.340 200.428 C 182.764 200.883,182.898 200.885,183.173 200.439 C 183.445 199.999,184.111 200.049,187.072 200.731 C 189.374 201.261,192.799 201.646,196.707 201.815 C 202.018 202.044,202.744 202.153,202.552 202.698 C 202.424 203.063,202.618 202.970,203.022 202.472 C 203.572 201.795,204.480 201.515,207.517 201.087 C 209.811 200.764,211.170 200.705,210.935 200.940 C 210.722 201.153,210.547 201.469,210.547 201.641 C 210.547 202.128,212.289 202.008,212.813 201.484 C 213.379 200.918,213.438 200.248,212.891 200.586 C 212.676 200.719,212.500 200.668,212.500 200.474 C 212.500 200.279,213.819 199.737,215.431 199.269 C 219.226 198.166,225.226 195.080,228.809 192.389 C 230.755 190.927,231.641 190.455,231.641 190.879 C 231.641 191.303,231.884 191.434,232.415 191.295 C 233.062 191.126,233.127 191.209,232.811 191.800 C 232.565 192.259,232.156 192.435,231.646 192.302 C 231.213 192.189,230.859 192.287,230.859 192.520 C 230.859 192.753,231.105 192.850,231.406 192.735 C 231.706 192.619,232.081 192.733,232.238 192.987 C 232.421 193.283,232.926 192.801,233.644 191.647 C 234.963 189.529,234.968 189.499,234.082 188.820 C 233.656 188.493,233.545 188.183,233.789 187.996 C 234.004 187.830,234.519 187.080,234.935 186.328 C 235.350 185.576,236.004 184.735,236.388 184.458 C 238.999 182.581,238.337 169.819,234.957 156.847 C 233.750 152.214,234.146 152.687,232.065 153.393 C 231.117 153.715,229.869 153.884,229.290 153.768 C 228.712 153.653,228.053 153.744,227.826 153.971 C 226.495 155.302,217.586 153.365,216.366 151.480 C 216.236 151.279,215.006 152.101,213.631 153.306 C 204.857 160.998,192.937 161.022,183.852 153.365 C 182.862 152.530,182.145 151.695,182.259 151.509 C 182.522 151.085,182.477 151.093,181.055 151.716 M251.172 155.664 C 251.901 156.416,252.585 157.031,252.692 157.031 C 252.800 157.031,252.291 156.416,251.563 155.664 C 250.834 154.912,250.149 154.297,250.042 154.297 C 249.935 154.297,250.443 154.912,251.172 155.664 M197.019 155.352 C 197.307 155.641,200.038 155.561,200.343 155.256 C 200.441 155.158,199.671 155.078,198.633 155.078 C 197.594 155.078,196.868 155.202,197.019 155.352 M178.931 162.122 C 181.240 163.359,182.375 170.337,180.752 173.329 C 178.300 177.851,173.947 176.866,172.659 171.496 C 171.218 165.490,174.911 159.971,178.931 162.122 M222.646 162.879 C 226.314 166.806,224.395 176.172,219.922 176.172 C 215.442 176.172,213.633 167.194,217.277 163.044 C 218.866 161.234,221.046 161.167,222.646 162.879 M255.567 166.211 C 255.572 167.070,255.652 167.376,255.745 166.890 C 255.838 166.404,255.835 165.701,255.737 165.327 C 255.639 164.954,255.563 165.352,255.567 166.211 M260.384 166.308 C 260.259 166.434,260.146 167.166,260.132 167.936 C 260.119 168.706,259.810 170.286,259.446 171.447 L 258.784 173.558 259.922 174.767 C 262.751 177.774,263.765 181.691,263.135 187.175 C 262.835 189.778,262.836 189.781,264.224 191.317 C 269.418 197.067,269.654 205.292,264.838 212.741 L 264.051 213.959 265.228 216.331 C 268.957 223.846,266.966 232.540,260.377 237.515 L 258.303 239.081 258.113 243.271 C 257.663 253.212,251.230 259.766,241.921 259.766 C 239.252 259.766,239.238 259.774,236.967 262.956 C 232.976 268.549,225.551 270.856,217.805 268.910 L 215.332 268.289 212.930 270.058 C 206.561 274.746,198.327 275.048,191.174 270.856 L 189.482 269.865 186.636 270.829 C 180.609 272.871,174.148 272.251,171.249 269.352 C 170.281 268.384,170.166 265.488,171.063 264.677 C 172.031 263.800,172.131 263.099,171.240 263.442 C 170.466 263.738,169.527 263.028,169.544 262.159 C 169.555 261.574,169.595 261.574,170.043 262.163 C 170.491 262.752,170.603 262.744,171.441 262.066 C 171.942 261.660,172.138 261.328,171.876 261.328 C 171.548 261.328,171.488 260.993,171.682 260.254 C 171.949 259.238,172.019 258.594,172.193 255.566 C 172.233 254.868,172.452 254.297,172.679 254.297 C 172.907 254.297,172.992 254.461,172.868 254.661 C 172.745 254.861,172.802 255.122,172.997 255.242 C 173.191 255.363,173.465 254.695,173.605 253.760 C 174.079 250.602,174.681 250.309,176.487 252.361 C 179.735 256.050,184.514 257.451,189.205 256.087 C 191.665 255.372,194.531 253.123,194.531 251.908 C 194.531 251.026,194.467 251.022,192.028 251.762 C 186.867 253.327,181.424 251.780,178.549 247.930 C 177.351 246.326,176.979 246.072,175.977 246.172 C 175.016 246.268,174.782 246.131,174.680 245.410 C 174.611 244.927,174.723 244.531,174.927 244.531 C 175.132 244.531,175.391 244.180,175.504 243.750 C 175.656 243.167,175.516 242.969,174.952 242.969 C 174.253 242.969,174.200 242.687,174.251 239.287 C 174.295 236.335,174.412 235.646,174.844 235.811 C 175.285 235.980,175.352 235.341,175.217 232.274 C 175.125 230.182,175.213 228.430,175.417 228.304 C 175.941 227.980,175.866 227.326,175.317 227.441 C 175.062 227.495,174.829 227.188,174.798 226.758 C 174.621 224.249,174.617 224.240,173.926 224.499 C 173.306 224.732,173.297 224.688,173.828 224.022 C 174.150 223.618,174.210 223.410,173.961 223.559 C 172.753 224.283,170.955 221.754,171.305 219.824 C 171.416 219.211,171.246 218.567,170.874 218.195 C 170.484 217.806,170.350 217.258,170.507 216.700 C 170.670 216.119,170.634 215.992,170.401 216.327 C 170.118 216.734,169.949 216.715,169.547 216.229 C 169.271 215.897,168.803 215.625,168.507 215.625 C 168.211 215.625,167.969 215.449,167.969 215.234 C 167.969 215.020,168.145 214.844,168.359 214.844 C 168.574 214.844,168.750 214.646,168.750 214.405 C 168.750 214.105,168.562 214.123,168.155 214.461 C 167.453 215.043,166.846 214.639,167.476 214.008 C 167.971 213.513,167.678 212.392,167.140 212.725 C 166.944 212.846,166.885 213.108,167.009 213.308 C 167.132 213.508,166.960 213.672,166.625 213.672 C 165.797 213.672,165.859 213.303,166.868 212.229 C 167.704 211.339,167.706 211.312,166.966 210.771 C 166.551 210.468,166.353 210.079,166.526 209.907 C 166.698 209.734,167.015 209.852,167.230 210.168 C 167.545 210.631,167.596 210.591,167.497 209.961 C 167.427 209.513,167.020 209.129,166.542 209.060 C 165.951 208.976,165.764 208.733,165.897 208.226 C 166.130 207.333,165.315 206.758,164.995 207.590 C 164.867 207.925,164.596 208.096,164.393 207.971 C 164.165 207.830,164.172 207.566,164.412 207.276 C 165.073 206.480,164.266 205.595,163.477 206.250 C 162.928 206.705,162.778 206.701,162.476 206.225 C 162.281 205.916,162.119 205.820,162.115 206.012 C 162.112 206.203,161.494 205.707,160.742 204.910 C 159.990 204.112,159.375 203.683,159.375 203.955 C 159.375 204.227,159.847 204.942,160.425 205.545 C 161.002 206.148,161.260 206.641,160.997 206.641 C 160.449 206.641,158.203 204.448,158.203 203.912 C 158.203 203.715,157.896 203.375,157.520 203.156 C 157.144 202.937,156.995 202.753,157.189 202.746 C 157.383 202.740,157.163 202.406,156.701 202.006 C 156.239 201.605,155.748 200.682,155.610 199.955 C 155.288 198.258,154.682 197.424,154.263 198.102 C 154.092 198.378,154.286 198.993,154.717 199.540 C 155.547 200.596,155.675 201.172,155.078 201.172 C 154.863 201.172,154.688 200.899,154.688 200.567 C 154.687 200.234,154.053 199.311,153.278 198.516 C 152.503 197.721,151.632 196.735,151.342 196.325 C 150.924 195.731,150.701 195.674,150.256 196.043 C 149.809 196.414,149.452 196.302,148.481 195.485 C 147.813 194.922,147.266 194.600,147.266 194.770 C 147.266 194.939,147.055 194.867,146.797 194.609 C 146.231 194.044,145.167 193.979,145.508 194.531 C 145.851 195.086,145.172 195.016,144.593 194.437 C 144.207 194.051,144.037 194.067,143.758 194.519 C 143.457 195.006,143.303 194.992,142.669 194.418 C 142.263 194.051,141.788 193.750,141.614 193.750 C 141.175 193.750,140.262 192.493,140.247 191.867 C 140.225 190.947,139.179 190.147,138.912 190.845 C 138.781 191.186,138.949 191.537,139.310 191.676 C 139.827 191.874,139.776 192.001,139.013 192.409 C 138.316 192.782,138.012 192.792,137.765 192.447 C 137.571 192.177,137.509 192.429,137.611 193.066 C 137.705 193.657,137.666 194.141,137.524 194.141 C 137.382 194.141,137.034 194.783,136.750 195.567 C 136.467 196.352,135.552 197.734,134.719 198.638 C 132.835 200.682,132.377 205.078,134.048 205.078 C 135.887 205.078,147.066 215.442,147.982 217.996 C 148.053 218.196,148.539 218.359,149.062 218.359 C 151.890 218.359,154.230 223.451,152.567 225.989 C 151.765 227.212,149.711 228.512,148.577 228.514 C 147.499 228.516,147.588 228.219,145.947 237.322 C 143.049 253.399,143.007 253.688,143.489 253.995 C 143.775 254.177,143.790 254.287,143.529 254.291 C 143.300 254.294,142.881 255.459,142.599 256.879 C 142.075 259.516,142.259 260.131,143.579 260.150 C 144.927 260.170,146.833 263.461,146.934 265.943 C 146.983 267.160,147.018 267.213,147.157 266.285 C 147.250 265.665,147.522 265.256,147.782 265.345 C 148.035 265.432,148.187 265.880,148.120 266.342 C 148.027 266.989,148.149 267.124,148.654 266.930 C 149.220 266.713,149.247 266.795,148.856 267.527 C 148.606 267.994,148.526 268.578,148.679 268.824 C 148.863 269.123,148.738 269.190,148.306 269.024 C 147.949 268.887,147.656 268.945,147.656 269.153 C 147.656 269.361,147.920 269.531,148.242 269.531 C 148.564 269.531,148.828 269.705,148.828 269.918 C 148.828 271.823,156.002 274.277,161.236 274.162 L 164.855 274.082 165.924 275.420 C 170.939 281.699,177.800 283.783,185.613 281.398 L 189.000 280.365 190.691 281.737 C 197.528 287.282,206.949 287.255,213.004 281.674 C 215.009 279.827,215.012 279.826,218.359 280.911 C 227.049 283.727,236.395 280.193,241.207 272.272 L 242.569 270.031 245.991 269.827 C 258.051 269.110,265.818 260.587,265.587 248.326 C 265.551 246.439,265.589 244.842,265.671 244.776 C 265.753 244.711,266.615 244.121,267.587 243.465 C 275.787 237.928,278.297 227.048,273.363 218.424 L 272.146 216.297 273.330 214.105 C 277.630 206.155,276.769 198.667,270.732 191.497 L 268.342 188.657 268.970 186.232 C 269.965 182.392,269.636 176.978,268.233 174.121 C 266.525 170.644,261.275 165.418,260.384 166.308 M154.431 176.367 C 154.432 178.086,154.501 178.740,154.583 177.822 C 154.666 176.903,154.665 175.497,154.581 174.697 C 154.497 173.897,154.429 174.648,154.431 176.367 M242.685 176.563 C 242.685 177.529,242.761 177.925,242.854 177.441 C 242.947 176.958,242.947 176.167,242.854 175.684 C 242.761 175.200,242.685 175.596,242.685 176.563 M255.249 178.223 L 254.102 179.492 255.371 178.345 C 256.069 177.714,256.641 177.143,256.641 177.075 C 256.641 176.774,256.318 177.039,255.249 178.223 M193.474 180.140 C 193.939 180.388,195.174 181.267,196.218 182.093 C 198.532 183.922,198.831 183.935,200.682 182.296 C 203.721 179.605,204.590 179.255,205.636 180.301 C 206.872 181.537,205.699 183.411,202.319 185.601 L 200.391 186.850 200.391 189.128 C 200.391 191.887,201.265 192.178,203.711 190.234 C 206.867 187.726,208.925 190.094,206.147 193.039 C 201.998 197.439,189.844 195.527,189.844 190.474 C 189.844 189.074,191.496 188.653,192.697 189.747 C 195.436 192.240,196.875 192.037,196.874 189.160 C 196.874 186.927,196.863 186.908,195.137 185.817 C 191.741 183.672,190.142 181.016,191.699 180.109 C 192.562 179.607,192.476 179.605,193.474 180.140 M242.199 182.890 C 242.193 183.470,241.753 185.315,241.221 186.992 C 231.189 218.620,169.559 220.177,156.787 189.124 C 155.709 186.503,155.549 187.539,156.473 191.155 C 157.769 196.222,163.970 205.434,167.899 208.128 C 193.139 225.438,229.348 219.153,240.223 195.576 C 242.418 190.817,243.633 184.284,242.641 182.576 C 242.251 181.905,242.210 181.934,242.199 182.890 M123.968 183.567 C 121.852 184.086,120.018 185.493,119.168 187.247 C 118.321 188.999,118.062 191.245,118.758 190.815 C 118.977 190.680,119.702 191.028,120.368 191.588 C 123.970 194.619,128.894 194.493,132.026 191.290 C 135.370 187.869,129.472 182.217,123.968 183.567 M163.281 191.159 C 163.281 191.761,166.297 195.335,168.029 196.786 C 169.352 197.894,169.236 197.348,167.813 195.769 L 166.992 194.858 168.024 195.117 C 169.236 195.421,169.778 194.832,168.932 194.130 C 168.440 193.721,168.383 193.746,168.588 194.281 C 168.854 194.974,168.173 195.177,167.769 194.525 C 167.635 194.307,167.359 194.230,167.157 194.355 C 166.955 194.480,166.328 194.219,165.764 193.775 C 164.861 193.066,164.836 192.799,165.683 192.909 C 166.038 192.955,165.604 191.440,165.189 191.183 C 164.424 190.710,163.281 190.696,163.281 191.159 M114.899 198.957 C 114.376 199.588,114.699 200.031,115.468 199.736 C 115.808 199.606,116.016 199.782,116.016 200.202 C 116.016 200.746,115.785 200.833,114.844 200.645 C 114.199 200.516,113.672 200.561,113.672 200.745 C 113.672 200.930,113.320 201.173,112.891 201.285 C 112.461 201.397,112.109 201.301,112.109 201.070 C 112.109 200.840,111.996 200.764,111.858 200.902 C 111.720 201.040,111.833 201.425,112.109 201.758 C 112.385 202.090,112.531 202.443,112.432 202.542 C 112.056 202.918,109.375 203.071,109.375 202.716 C 109.375 202.110,107.916 202.292,107.671 202.930 C 107.540 203.272,106.954 203.516,106.262 203.516 C 105.611 203.516,105.078 203.713,105.078 203.954 C 105.078 204.277,104.939 204.277,104.554 203.957 C 103.945 203.452,103.516 203.756,103.516 204.692 C 103.516 205.455,102.207 206.765,101.826 206.383 C 101.684 206.241,101.237 206.424,100.833 206.790 C 100.428 207.155,99.944 207.426,99.756 207.392 C 98.708 207.200,98.365 207.472,98.580 208.327 C 98.840 209.361,97.909 210.938,97.038 210.938 C 96.723 210.938,96.303 211.363,96.106 211.883 C 95.829 212.611,95.547 212.777,94.882 212.603 C 94.167 212.416,94.052 212.510,94.219 213.147 C 94.366 213.710,94.229 213.911,93.710 213.892 C 93.320 213.878,92.981 214.043,92.957 214.258 C 92.892 214.840,91.855 215.317,91.343 215.000 C 91.077 214.835,91.001 214.895,91.157 215.147 C 91.301 215.380,91.248 215.677,91.039 215.806 C 90.830 215.935,90.669 216.519,90.682 217.103 C 90.714 218.538,90.475 219.447,89.918 220.004 C 89.662 220.260,89.453 220.697,89.453 220.977 C 89.453 221.256,89.305 221.484,89.125 221.484 C 88.944 221.484,88.304 222.407,87.702 223.535 C 87.100 224.663,86.241 225.991,85.793 226.487 C 85.046 227.313,85.040 227.364,85.718 227.104 C 86.293 226.883,86.380 226.943,86.111 227.375 C 85.921 227.680,85.742 228.343,85.714 228.847 C 85.686 229.352,85.417 229.920,85.117 230.111 C 84.650 230.406,84.651 230.458,85.124 230.463 C 85.428 230.466,85.566 230.580,85.430 230.715 C 85.295 230.851,85.373 231.316,85.605 231.749 C 85.936 232.368,85.894 232.611,85.407 232.883 C 83.571 233.911,83.034 246.499,84.766 247.949 C 85.265 248.367,85.237 248.401,84.570 248.177 C 83.819 247.924,83.815 247.944,84.476 248.698 C 84.969 249.262,85.093 249.830,84.915 250.718 C 84.749 251.548,84.820 251.953,85.130 251.953 C 85.385 251.953,85.468 251.750,85.314 251.502 C 85.148 251.233,85.206 251.157,85.460 251.313 C 85.693 251.457,85.808 251.993,85.715 252.504 C 85.609 253.089,85.763 253.515,86.133 253.657 C 86.455 253.781,86.719 254.300,86.719 254.812 C 86.719 256.151,87.537 258.324,88.237 258.844 C 88.749 259.224,88.758 259.386,88.303 259.935 C 87.836 260.497,87.937 260.753,89.095 261.947 C 90.195 263.083,90.322 263.378,89.839 263.683 C 89.519 263.885,89.434 264.074,89.648 264.102 C 89.863 264.130,90.215 264.193,90.430 264.243 C 90.645 264.293,91.012 264.361,91.246 264.394 C 91.780 264.468,92.661 266.347,92.378 266.805 C 92.262 266.992,92.828 267.594,93.635 268.143 C 94.443 268.692,94.968 269.141,94.802 269.141 C 94.636 269.141,94.859 269.526,95.298 269.996 C 95.820 270.557,95.948 270.942,95.670 271.114 C 94.868 271.610,95.827 273.624,96.705 273.287 C 97.008 273.170,97.214 273.260,97.163 273.486 C 97.112 273.712,97.677 274.230,98.418 274.636 C 99.159 275.043,99.921 275.654,100.111 275.993 C 100.360 276.439,100.772 276.541,101.595 276.360 C 102.333 276.198,102.734 276.266,102.734 276.555 C 102.734 276.799,102.515 276.874,102.246 276.721 C 101.978 276.568,102.109 276.799,102.539 277.234 C 102.969 277.669,103.454 277.948,103.618 277.854 C 103.782 277.760,104.028 278.248,104.167 278.938 C 104.405 280.129,104.447 280.156,104.988 279.453 C 105.390 278.930,105.613 278.856,105.742 279.202 C 105.843 279.472,106.073 279.602,106.252 279.491 C 106.431 279.380,106.812 279.515,107.097 279.789 C 107.383 280.064,108.013 280.266,108.496 280.237 C 109.316 280.188,109.735 280.983,109.082 281.349 C 108.921 281.439,109.009 281.459,109.277 281.394 C 109.546 281.328,109.778 281.489,109.793 281.751 C 109.808 282.012,109.972 281.875,110.156 281.445 C 110.446 280.772,110.614 280.993,110.518 281.918 C 110.466 282.416,111.906 282.718,112.201 282.271 C 112.368 282.018,112.491 282.205,112.494 282.715 C 112.500 283.614,113.271 283.990,113.294 283.105 C 113.302 282.765,113.450 282.795,113.782 283.203 C 114.299 283.839,118.515 283.996,121.113 283.475 C 122.068 283.284,122.734 283.369,123.256 283.751 C 123.749 284.111,124.236 284.184,124.654 283.961 C 125.007 283.772,125.976 283.712,126.808 283.828 C 127.640 283.943,129.463 284.005,130.859 283.965 C 132.256 283.924,134.189 283.876,135.156 283.857 C 136.528 283.830,137.080 283.613,137.670 282.871 C 138.331 282.038,138.456 282.002,138.660 282.583 C 138.872 283.187,138.976 283.174,139.828 282.435 C 140.546 281.813,140.837 281.739,141.079 282.121 C 141.308 282.482,141.396 282.431,141.400 281.934 C 141.406 281.320,141.839 281.072,142.676 281.204 C 142.837 281.229,142.925 281.052,142.871 280.811 C 142.817 280.569,143.276 280.342,143.890 280.307 C 144.504 280.273,145.229 279.940,145.500 279.568 C 145.794 279.167,146.253 278.992,146.630 279.137 C 147.093 279.314,147.266 279.157,147.266 278.557 C 147.266 277.939,147.509 277.734,148.247 277.734 C 150.577 277.734,150.820 276.896,148.786 275.882 C 147.743 275.363,146.014 274.150,144.943 273.187 L 142.997 271.437 126.088 271.468 C 107.219 271.504,107.468 271.537,105.566 268.750 C 103.533 265.771,105.290 261.082,108.959 259.694 C 109.139 259.626,109.063 258.340,108.789 256.836 C 108.515 255.332,108.271 254.420,108.247 254.808 C 108.165 256.126,107.477 255.075,106.987 252.884 C 106.620 251.247,106.607 250.415,106.935 249.548 C 107.398 248.321,106.653 242.746,105.830 241.284 C 105.611 240.895,105.539 240.192,105.671 239.722 C 105.865 239.031,105.828 238.979,105.479 239.453 C 105.143 239.909,105.072 239.693,105.160 238.477 C 105.378 235.474,103.885 228.516,103.023 228.516 C 97.586 228.516,96.504 219.582,101.800 218.427 C 102.690 218.232,104.256 216.796,107.817 212.908 C 112.974 207.277,114.223 206.095,115.676 205.472 C 116.474 205.129,116.413 205.104,115.234 205.289 C 114.102 205.466,113.990 205.426,114.583 205.058 C 114.996 204.801,115.863 204.719,116.634 204.863 L 117.969 205.114 117.969 203.191 C 117.969 201.385,117.277 200.041,116.663 200.654 C 116.522 200.796,116.406 200.552,116.406 200.113 C 116.406 198.984,115.471 198.267,114.899 198.957 M221.238 201.344 C 220.566 201.637,219.896 202.069,219.750 202.305 C 219.297 203.038,220.436 202.775,222.070 201.768 C 223.750 200.733,223.240 200.473,221.238 201.344 M176.953 202.461 C 177.312 202.844,181.349 204.328,181.532 204.145 C 181.806 203.871,179.672 202.866,178.125 202.540 C 177.373 202.382,176.846 202.346,176.953 202.461 M213.045 203.582 C 212.849 203.898,212.992 203.957,213.510 203.772 C 214.058 203.577,213.997 203.713,213.281 204.283 C 212.392 204.992,212.374 205.059,213.086 205.040 C 214.129 205.012,216.791 203.974,215.918 203.936 C 215.542 203.920,215.234 203.730,215.234 203.516 C 215.234 202.969,213.389 203.025,213.045 203.582 M152.332 205.083 C 152.016 205.278,151.558 206.367,151.313 207.503 L 150.869 209.570 150.825 207.663 C 150.783 205.851,151.989 203.812,152.688 204.511 C 152.808 204.631,152.648 204.889,152.332 205.083 M184.961 205.284 C 187.235 206.034,188.518 206.029,187.891 205.273 C 187.564 204.880,186.746 204.701,185.401 204.728 L 183.398 204.769 184.961 205.284 M196.191 206.920 C 196.782 207.010,197.749 207.010,198.340 206.920 C 198.931 206.831,198.447 206.758,197.266 206.758 C 196.084 206.758,195.601 206.831,196.191 206.920 M130.859 209.375 C 130.859 209.610,128.950 209.798,126.074 209.846 C 121.630 209.921,121.539 209.936,124.805 210.068 C 128.994 210.237,133.984 209.842,133.984 209.342 C 133.984 209.145,133.281 208.984,132.422 208.984 C 131.563 208.984,130.859 209.160,130.859 209.375 M116.655 211.816 C 114.982 213.525,111.184 218.359,111.515 218.359 C 111.617 218.359,112.420 217.437,113.300 216.309 C 114.179 215.181,115.792 213.335,116.884 212.207 C 117.976 211.079,118.737 210.156,118.575 210.156 C 118.413 210.156,117.549 210.903,116.655 211.816 M153.094 212.891 C 153.279 212.891,154.285 213.648,155.329 214.574 C 156.373 215.500,157.886 216.656,158.691 217.145 C 160.687 218.354,160.533 218.750,158.066 218.750 C 156.378 218.750,155.675 218.531,154.407 217.613 C 152.875 216.503,150.821 214.063,151.419 214.063 C 151.584 214.063,151.508 213.852,151.250 213.594 C 150.539 212.883,150.635 210.906,151.367 211.187 C 151.705 211.316,151.968 211.187,151.988 210.882 C 152.008 210.590,152.189 210.923,152.390 211.621 C 152.592 212.319,152.908 212.891,153.094 212.891 M172.117 221.310 C 171.793 222.152,171.792 222.150,172.448 222.402 C 173.253 222.711,173.462 222.190,172.863 221.371 C 172.409 220.750,172.334 220.744,172.117 221.310 M250.781 225.377 C 250.781 225.584,251.084 226.595,251.453 227.623 C 253.921 234.491,250.605 240.843,243.637 242.598 C 241.928 243.029,241.838 243.124,241.395 244.968 C 240.068 250.498,236.522 253.151,229.725 253.696 C 226.742 253.935,226.466 254.127,227.683 255.114 C 232.982 259.410,242.769 255.792,244.838 248.772 C 245.498 246.534,245.516 246.515,247.825 245.673 C 255.961 242.706,258.744 233.004,253.287 226.629 C 251.986 225.110,250.781 224.508,250.781 225.377 M108.222 229.199 C 108.300 231.988,111.231 246.680,111.710 246.680 C 112.267 246.680,114.156 242.411,113.770 242.025 C 113.654 241.910,113.849 241.704,114.202 241.569 C 114.555 241.433,114.844 241.084,114.844 240.792 C 114.844 240.499,115.465 239.639,116.224 238.880 C 116.983 238.121,117.498 237.500,117.368 237.500 C 116.803 237.500,118.316 236.410,120.020 235.589 C 121.040 235.098,121.875 234.507,121.875 234.275 C 121.875 234.044,121.991 233.970,122.132 234.111 C 122.825 234.804,123.438 233.348,123.438 231.007 L 123.438 228.516 115.820 228.516 C 108.819 228.516,108.205 228.571,108.222 229.199 M127.490 238.184 C 127.494 247.411,127.500 247.489,127.622 239.901 L 127.750 231.951 128.709 232.191 C 131.541 232.902,137.737 239.201,139.063 242.717 C 139.385 243.572,139.829 244.332,140.051 244.405 C 140.361 244.509,143.005 230.406,142.974 228.809 C 142.971 228.647,139.485 228.516,135.227 228.516 L 127.486 228.516 127.490 238.184 M123.559 238.086 C 123.561 239.375,123.634 239.855,123.721 239.153 C 123.808 238.451,123.806 237.396,123.717 236.809 C 123.627 236.222,123.556 236.797,123.559 238.086 M164.110 239.358 C 164.541 240.703,165.141 242.281,165.444 242.865 C 165.802 243.554,165.861 244.060,165.615 244.307 C 165.406 244.516,165.234 245.081,165.234 245.563 C 165.234 246.843,164.749 246.938,163.711 245.859 C 162.427 244.525,161.756 242.337,161.920 240.015 C 162.064 237.965,162.951 235.432,163.192 236.381 C 163.266 236.674,163.679 238.014,164.110 239.358 M174.863 237.982 C 174.738 238.461,174.805 239.024,175.013 239.232 C 175.256 239.475,175.391 239.164,175.391 238.359 C 175.391 236.899,175.185 236.751,174.863 237.982 M123.599 249.414 C 123.599 253.281,123.658 254.810,123.729 252.812 C 123.800 250.814,123.800 247.650,123.728 245.781 C 123.657 243.912,123.598 245.547,123.599 249.414 M138.536 248.762 C 138.180 249.156,137.981 249.570,138.095 249.683 C 138.208 249.796,138.032 250.111,137.705 250.383 C 137.377 250.655,137.107 251.163,137.104 251.513 C 137.086 253.477,135.456 256.641,134.462 256.641 C 133.410 256.641,131.092 258.644,131.699 259.029 C 132.153 259.317,137.888 259.547,137.892 259.277 C 137.893 259.224,138.333 256.728,138.869 253.731 C 140.048 247.140,140.045 247.095,138.536 248.762 M112.133 251.831 C 112.146 252.005,112.456 253.730,112.823 255.664 L 113.490 259.180 116.183 259.297 C 120.087 259.466,120.510 257.646,117.206 254.894 C 116.249 254.097,115.278 253.065,115.049 252.601 C 114.643 251.783,112.079 251.105,112.133 251.831 M127.472 256.836 C 127.474 258.340,127.544 258.907,127.629 258.097 C 127.713 257.286,127.712 256.056,127.626 255.362 C 127.539 254.669,127.470 255.332,127.472 256.836 M149.784 259.585 C 150.010 259.986,150.547 260.627,150.977 261.011 C 151.751 261.702,151.749 261.707,150.783 261.616 C 149.713 261.515,149.096 263.058,150.075 263.387 C 150.356 263.482,150.234 263.481,149.805 263.384 C 149.375 263.287,148.540 263.117,147.949 263.005 C 146.787 262.785,146.805 262.811,146.709 261.229 C 146.657 260.386,146.785 260.199,147.299 260.362 C 147.962 260.573,148.625 259.603,148.242 258.983 C 148.132 258.807,148.342 258.706,148.708 258.760 C 149.073 258.813,149.557 259.185,149.784 259.585 M117.472 263.563 C 118.165 263.649,119.396 263.651,120.206 263.566 C 121.017 263.482,120.449 263.411,118.945 263.409 C 117.441 263.408,116.778 263.477,117.472 263.563 M108.984 264.941 C 108.984 265.103,116.445 265.234,125.563 265.234 C 134.681 265.234,142.223 265.103,142.323 264.941 C 142.422 264.780,134.962 264.648,125.744 264.648 C 116.526 264.648,108.984 264.780,108.984 264.941 M159.586 285.156 C 159.385 285.521,160.349 287.878,160.742 287.982 C 160.957 288.039,161.120 288.385,161.104 288.750 C 161.088 289.115,161.220 289.325,161.398 289.215 C 161.746 288.999,162.374 290.403,162.678 292.079 C 162.877 293.179,165.256 296.872,166.320 297.734 C 166.839 298.155,166.892 298.151,166.629 297.715 C 166.372 297.287,166.469 297.272,167.151 297.637 C 167.632 297.894,167.878 298.286,167.727 298.555 C 167.523 298.917,167.579 298.917,167.971 298.553 C 168.539 298.028,169.871 298.526,170.430 299.471 C 170.816 300.126,174.530 300.180,176.758 299.563 C 179.927 298.685,181.790 296.397,182.287 292.775 L 182.528 291.016 180.768 291.016 C 175.355 291.016,169.008 288.986,165.685 286.192 C 164.102 284.861,160.121 284.185,159.586 285.156 M242.768 285.552 C 242.342 286.024,241.780 286.251,241.367 286.120 C 240.977 285.997,239.444 286.523,237.839 287.331 C 234.088 289.220,228.060 290.693,223.926 290.730 C 220.250 290.764,220.305 290.690,221.326 294.167 C 221.668 295.334,222.335 296.641,222.809 297.070 C 223.282 297.500,223.398 297.684,223.065 297.480 C 222.558 297.168,222.542 297.199,222.969 297.675 C 223.248 297.987,223.644 298.264,223.848 298.291 C 224.052 298.318,224.405 298.362,224.632 298.389 C 224.860 298.416,224.948 298.596,224.829 298.789 C 224.709 298.983,225.513 299.358,226.616 299.622 C 229.406 300.292,235.122 299.721,234.570 298.828 C 234.339 298.454,235.487 297.964,235.940 298.244 C 236.876 298.822,242.253 290.033,243.288 286.230 C 243.750 284.535,243.722 284.499,242.768 285.552 " stroke="none" fill="#f2dbb5" fill-rule="evenodd"></path><path id="path3" d="M122.333 203.626 L 122.420 205.106 125.761 204.995 L 129.102 204.883 129.217 203.516 L 129.332 202.148 125.789 202.147 L 122.245 202.146 122.333 203.626 M132.617 209.788 C 131.758 209.966,128.313 210.121,124.962 210.134 L 118.869 210.156 116.874 212.207 C 114.585 214.561,111.951 217.940,112.206 218.195 C 112.301 218.291,119.250 218.323,127.647 218.266 L 142.915 218.164 138.804 213.770 C 136.543 211.353,134.577 209.395,134.436 209.420 C 134.295 209.445,133.477 209.610,132.617 209.788 M152.222 215.487 C 153.291 217.118,155.811 218.750,157.262 218.750 C 158.782 218.750,159.426 218.002,158.418 217.407 C 158.032 217.179,157.011 216.415,156.149 215.710 C 154.707 214.529,154.528 214.476,153.902 215.043 C 153.291 215.596,153.198 215.597,152.990 215.056 C 152.863 214.724,152.486 214.453,152.152 214.453 C 151.620 214.453,151.629 214.582,152.222 215.487 M102.485 222.852 C 101.794 224.651,101.237 224.609,125.727 224.609 C 150.217 224.609,149.660 224.651,148.969 222.852 C 148.773 222.340,145.827 222.266,125.727 222.266 C 105.628 222.266,102.681 222.340,102.485 222.852 M162.695 236.719 C 162.563 236.934,162.579 237.312,162.733 237.560 C 162.893 237.820,162.841 237.906,162.609 237.763 C 161.645 237.167,161.632 242.480,162.592 244.336 C 163.111 245.338,164.303 246.484,164.827 246.484 C 165.346 246.484,165.357 245.825,164.844 245.508 C 164.240 245.135,164.382 244.141,165.039 244.141 C 165.361 244.141,165.625 243.976,165.625 243.776 C 165.625 242.975,163.555 238.698,163.256 238.883 C 163.081 238.991,163.037 238.461,163.160 237.704 C 163.378 236.360,163.179 235.937,162.695 236.719 M148.333 260.207 C 147.957 260.417,147.476 260.481,147.263 260.350 C 147.044 260.215,146.875 260.551,146.875 261.118 C 146.875 262.555,148.671 263.386,149.457 262.312 C 150.469 260.928,149.681 259.452,148.333 260.207 M125.488 265.141 C 116.196 265.197,108.594 265.377,108.594 265.542 C 108.594 265.707,108.867 266.232,109.202 266.710 L 109.810 267.578 125.775 267.578 C 142.623 267.578,142.969 267.543,142.969 265.815 C 142.969 265.010,143.536 265.032,125.488 265.141 M147.330 265.498 C 147.547 266.329,146.778 268.444,146.448 267.923 C 146.253 267.616,146.103 267.572,146.100 267.821 C 146.092 268.366,149.165 271.231,150.432 271.862 C 151.015 272.152,150.778 271.806,149.805 270.944 C 148.945 270.183,148.110 269.554,147.949 269.546 C 147.788 269.538,147.656 269.337,147.656 269.099 C 147.656 268.858,147.941 268.776,148.297 268.912 C 148.834 269.118,148.858 269.061,148.445 268.564 C 148.173 268.236,148.119 267.969,148.325 267.969 C 148.530 267.969,148.698 267.713,148.698 267.400 C 148.698 267.087,148.551 266.922,148.372 267.032 C 148.193 267.143,148.047 266.882,148.047 266.452 C 148.047 266.023,147.867 265.560,147.647 265.424 C 147.426 265.288,147.284 265.321,147.330 265.498 " stroke="none" fill="#e6b976" fill-rule="evenodd"></path><path id="path4" d="M197.563 95.979 C 198.049 96.073,198.752 96.069,199.126 95.972 C 199.499 95.874,199.102 95.797,198.242 95.802 C 197.383 95.806,197.077 95.886,197.563 95.979 M197.559 100.276 C 198.042 100.369,198.833 100.369,199.316 100.276 C 199.800 100.183,199.404 100.106,198.438 100.106 C 197.471 100.106,197.075 100.183,197.559 100.276 M185.724 105.566 L 184.180 107.227 185.840 105.682 C 187.384 104.246,187.680 103.906,187.384 103.906 C 187.320 103.906,186.573 104.653,185.724 105.566 M210.742 105.469 C 211.581 106.328,212.356 107.031,212.463 107.031 C 212.571 107.031,211.972 106.328,211.133 105.469 C 210.294 104.609,209.519 103.906,209.412 103.906 C 209.304 103.906,209.903 104.609,210.742 105.469 M158.384 109.863 L 156.445 111.914 158.496 109.976 C 159.624 108.909,160.547 107.987,160.547 107.925 C 160.547 107.633,160.185 107.958,158.384 109.863 M235.352 112.891 C 236.191 113.750,236.965 114.453,237.073 114.453 C 237.180 114.453,236.581 113.750,235.742 112.891 C 234.903 112.031,234.129 111.328,234.021 111.328 C 233.914 111.328,234.512 112.031,235.352 112.891 M161.108 112.988 L 159.961 114.258 161.230 113.111 C 162.414 112.041,162.680 111.719,162.378 111.719 C 162.311 111.719,161.739 112.290,161.108 112.988 M239.897 123.707 C 239.868 125.038,239.976 126.207,240.137 126.307 C 240.298 126.406,240.378 125.670,240.316 124.670 C 240.121 121.570,239.952 121.183,239.897 123.707 M156.634 124.298 C 156.530 125.523,156.588 126.383,156.762 126.208 C 156.936 126.033,157.021 125.031,156.951 123.980 L 156.823 122.070 156.634 124.298 M144.901 128.027 L 143.555 129.492 145.020 128.146 C 146.383 126.893,146.664 126.563,146.366 126.563 C 146.300 126.563,145.641 127.222,144.901 128.027 M158.434 137.695 C 158.786 138.232,159.138 138.672,159.216 138.672 C 159.294 138.672,159.158 138.232,158.913 137.695 C 158.669 137.158,158.317 136.719,158.131 136.719 C 157.946 136.719,158.082 137.158,158.434 137.695 M237.774 138.086 C 237.415 138.838,237.190 139.453,237.272 139.453 C 237.355 139.453,237.786 138.838,238.229 138.086 C 238.673 137.334,238.899 136.719,238.731 136.719 C 238.563 136.719,238.133 137.334,237.774 138.086 M157.513 138.672 C 157.513 139.424,157.593 139.731,157.691 139.355 C 157.789 138.979,157.789 138.364,157.691 137.988 C 157.593 137.612,157.513 137.920,157.513 138.672 M239.153 138.672 C 239.153 139.424,239.234 139.731,239.332 139.355 C 239.430 138.979,239.430 138.364,239.332 137.988 C 239.234 137.612,239.153 137.920,239.153 138.672 M252.851 141.016 C 252.851 142.197,252.925 142.681,253.014 142.090 C 253.104 141.499,253.104 140.532,253.014 139.941 C 252.925 139.351,252.851 139.834,252.851 141.016 M183.521 142.871 C 184.380 143.892,185.660 145.254,186.364 145.898 C 187.069 146.543,186.430 145.708,184.944 144.043 C 181.956 140.693,181.080 139.972,183.521 142.871 M257.122 142.188 C 257.122 142.939,257.202 143.247,257.301 142.871 C 257.399 142.495,257.399 141.880,257.301 141.504 C 257.202 141.128,257.122 141.436,257.122 142.188 M215.983 142.329 C 216.504 142.970,217.969 143.939,217.969 143.642 C 217.969 143.567,217.397 143.088,216.699 142.577 C 215.914 142.002,215.641 141.907,215.983 142.329 M210.924 145.215 L 208.789 147.461 211.035 145.326 C 212.271 144.152,213.281 143.141,213.281 143.080 C 213.281 142.790,212.908 143.128,210.924 145.215 M164.063 143.942 C 164.063 144.209,166.454 145.395,166.633 145.216 C 166.718 145.131,166.174 144.770,165.425 144.412 C 164.676 144.055,164.063 143.843,164.063 143.942 M218.359 143.942 C 218.359 144.209,220.751 145.395,220.930 145.216 C 221.015 145.131,220.471 144.770,219.722 144.412 C 218.972 144.055,218.359 143.843,218.359 143.942 M231.250 144.531 C 230.498 144.943,230.023 145.287,230.195 145.296 C 230.609 145.318,232.813 144.172,232.813 143.935 C 232.813 143.680,232.790 143.688,231.250 144.531 M140.274 145.557 C 140.221 146.658,136.358 148.682,130.728 150.560 C 124.209 152.734,121.086 154.671,120.531 156.884 C 120.279 157.888,120.266 157.892,119.415 157.173 L 118.555 156.445 119.336 157.380 C 123.098 161.878,136.912 160.647,140.202 155.519 C 140.856 154.500,141.815 153.268,142.333 152.782 L 143.274 151.897 142.106 149.632 C 141.463 148.387,140.798 146.773,140.626 146.047 C 140.430 145.215,140.300 145.034,140.274 145.557 M169.816 145.985 C 170.509 146.071,171.739 146.073,172.550 145.988 C 173.360 145.904,172.793 145.833,171.289 145.831 C 169.785 145.830,169.122 145.899,169.816 145.985 M224.112 145.985 C 224.806 146.071,226.036 146.073,226.847 145.988 C 227.657 145.904,227.090 145.833,225.586 145.831 C 224.082 145.830,223.419 145.899,224.112 145.985 M255.050 149.051 C 253.674 151.920,253.666 151.968,254.419 152.639 C 254.839 153.014,255.838 154.199,256.640 155.273 C 260.509 160.459,275.065 161.971,278.542 157.548 C 279.050 156.902,279.040 156.884,278.442 157.352 C 277.868 157.802,277.707 157.720,277.187 156.716 C 276.197 154.802,272.513 152.713,266.016 150.382 C 262.686 149.187,259.261 147.734,258.405 147.152 C 256.426 145.805,256.675 145.665,255.050 149.051 M178.641 148.491 C 175.084 150.203,171.788 150.614,168.049 149.810 C 166.394 149.455,164.796 149.132,164.500 149.094 C 163.931 149.020,162.354 152.965,162.660 153.697 C 162.753 153.919,162.843 153.773,162.860 153.372 C 162.883 152.817,163.100 152.695,163.770 152.862 C 164.253 152.983,165.791 153.371,167.188 153.726 C 170.883 154.665,175.286 154.359,178.320 152.953 C 181.496 151.481,182.505 151.111,182.259 151.510 C 182.144 151.695,182.862 152.530,183.852 153.365 C 192.937 161.022,204.857 160.998,213.631 153.306 C 215.006 152.101,216.236 151.279,216.366 151.480 C 217.596 153.381,226.296 155.262,227.858 153.965 C 228.135 153.736,228.745 153.649,229.215 153.772 C 230.212 154.032,233.620 153.116,233.847 152.527 C 234.125 151.805,232.930 149.021,232.373 149.094 C 232.078 149.132,230.438 149.464,228.729 149.830 C 224.952 150.640,221.971 150.237,217.877 148.361 L 215.246 147.155 213.527 148.740 C 206.628 155.100,196.887 156.423,188.404 152.154 C 186.979 151.437,185.504 150.910,185.125 150.983 C 184.747 151.055,184.339 150.860,184.219 150.549 C 184.040 150.082,184.156 150.060,184.872 150.424 C 185.351 150.667,184.863 150.064,183.789 149.083 C 181.493 146.987,181.713 147.013,178.641 148.491 M206.641 148.242 C 205.674 148.760,205.022 149.191,205.191 149.201 C 205.606 149.225,208.594 147.690,208.594 147.453 C 208.594 147.194,208.610 147.188,206.641 148.242 M233.197 151.074 C 233.200 151.343,233.027 151.563,232.813 151.563 C 232.598 151.563,232.425 151.079,232.428 150.488 C 232.434 149.388,233.183 149.959,233.197 151.074 M196.001 150.276 C 196.487 150.370,197.190 150.366,197.563 150.268 C 197.937 150.171,197.539 150.094,196.680 150.099 C 195.820 150.103,195.515 150.183,196.001 150.276 M200.098 150.269 C 200.474 150.368,201.089 150.368,201.465 150.269 C 201.841 150.171,201.533 150.091,200.781 150.091 C 200.029 150.091,199.722 150.171,200.098 150.269 M279.395 154.102 C 279.400 154.961,279.480 155.267,279.573 154.781 C 279.667 154.295,279.663 153.592,279.565 153.218 C 279.467 152.845,279.391 153.242,279.395 154.102 M145.489 155.566 L 143.945 157.227 145.605 155.682 C 147.149 154.246,147.445 153.906,147.150 153.906 C 147.086 153.906,146.339 154.653,145.489 155.566 M200.343 155.256 C 200.038 155.561,197.307 155.641,197.019 155.352 C 196.868 155.202,197.594 155.078,198.633 155.078 C 199.671 155.078,200.441 155.158,200.343 155.256 M267.578 165.820 C 268.527 166.787,269.390 167.578,269.497 167.578 C 269.603 167.578,269.035 166.908,268.235 166.089 C 267.435 165.269,266.902 164.478,267.049 164.331 C 267.197 164.183,266.988 164.063,266.585 164.063 C 266.016 164.063,266.238 164.455,267.578 165.820 M125.684 164.736 C 126.382 164.822,127.524 164.822,128.223 164.736 C 128.921 164.649,128.350 164.578,126.953 164.578 C 125.557 164.578,124.985 164.649,125.684 164.736 M269.831 164.736 C 270.533 164.823,271.588 164.821,272.175 164.732 C 272.762 164.643,272.188 164.572,270.898 164.574 C 269.609 164.576,269.129 164.649,269.831 164.736 M132.603 167.285 L 130.664 169.336 132.715 167.397 C 133.843 166.331,134.766 165.409,134.766 165.347 C 134.766 165.055,134.404 165.380,132.603 167.285 M181.371 168.945 C 181.373 170.234,181.446 170.715,181.533 170.013 C 181.620 169.310,181.618 168.256,181.529 167.669 C 181.440 167.082,181.369 167.656,181.371 168.945 M224.340 168.945 C 224.342 170.234,224.415 170.715,224.502 170.013 C 224.589 169.310,224.587 168.256,224.498 167.669 C 224.409 167.082,224.338 167.656,224.340 168.945 M172.377 168.945 C 172.380 170.020,172.456 170.413,172.546 169.819 C 172.636 169.225,172.633 168.346,172.541 167.866 C 172.448 167.385,172.374 167.871,172.377 168.945 M215.341 168.750 C 215.341 169.717,215.417 170.112,215.510 169.629 C 215.603 169.146,215.603 168.354,215.510 167.871 C 215.417 167.388,215.341 167.783,215.341 168.750 M264.665 169.141 C 265.734 170.322,266.922 171.729,267.306 172.266 C 267.978 173.208,267.979 173.197,267.316 171.973 C 266.938 171.274,265.750 169.868,264.675 168.848 L 262.722 166.992 264.665 169.141 M135.327 170.410 L 134.180 171.680 135.449 170.532 C 136.633 169.463,136.898 169.141,136.597 169.141 C 136.529 169.141,135.958 169.712,135.327 170.410 M159.075 171.875 C 159.075 172.627,159.155 172.935,159.254 172.559 C 159.352 172.183,159.352 171.567,159.254 171.191 C 159.155 170.815,159.075 171.123,159.075 171.875 M242.286 172.852 C 242.290 173.711,242.370 174.017,242.464 173.531 C 242.557 173.045,242.554 172.342,242.456 171.968 C 242.358 171.595,242.282 171.992,242.286 172.852 M237.997 173.828 C 237.997 174.795,238.073 175.190,238.166 174.707 C 238.259 174.224,238.259 173.433,238.166 172.949 C 238.073 172.466,237.997 172.861,237.997 173.828 M269.670 181.055 C 269.669 182.988,269.735 183.829,269.817 182.922 C 269.899 182.015,269.900 180.433,269.819 179.406 C 269.738 178.379,269.671 179.121,269.670 181.055 M237.981 179.688 C 237.981 180.439,238.062 180.747,238.160 180.371 C 238.258 179.995,238.258 179.380,238.160 179.004 C 238.062 178.628,237.981 178.936,237.981 179.688 M242.278 180.859 C 242.278 181.611,242.359 181.919,242.457 181.543 C 242.555 181.167,242.555 180.552,242.457 180.176 C 242.359 179.800,242.278 180.107,242.278 180.859 M131.998 180.982 C 132.174 181.159,133.001 181.244,133.835 181.171 L 135.352 181.038 133.514 180.850 C 132.504 180.746,131.821 180.806,131.998 180.982 M205.859 181.432 C 205.859 181.747,205.310 182.669,204.638 183.483 L 203.416 184.961 204.833 183.502 C 206.050 182.249,206.692 180.859,206.055 180.859 C 205.947 180.859,205.859 181.117,205.859 181.432 M237.531 182.342 C 237.514 182.835,237.073 183.665,236.552 184.187 C 236.030 184.708,235.283 185.711,234.892 186.415 C 234.500 187.119,234.004 187.830,233.789 187.996 C 233.545 188.183,233.656 188.493,234.082 188.820 C 234.968 189.499,234.963 189.529,233.644 191.647 C 232.926 192.801,232.421 193.283,232.238 192.987 C 232.081 192.733,231.706 192.619,231.406 192.735 C 231.105 192.850,230.859 192.753,230.859 192.520 C 230.859 192.287,231.213 192.189,231.646 192.302 C 232.156 192.435,232.565 192.259,232.811 191.800 C 233.127 191.209,233.062 191.126,232.415 191.295 C 231.884 191.434,231.641 191.303,231.641 190.879 C 231.641 190.455,230.755 190.927,228.809 192.389 C 225.226 195.080,219.226 198.166,215.431 199.269 C 213.819 199.737,212.500 200.279,212.500 200.474 C 212.500 200.668,212.676 200.719,212.891 200.586 C 213.438 200.248,213.379 200.918,212.812 201.484 C 212.289 202.008,210.547 202.128,210.547 201.641 C 210.547 201.469,210.722 201.153,210.935 200.940 C 211.170 200.705,209.811 200.764,207.517 201.087 C 204.480 201.515,203.572 201.795,203.022 202.472 C 202.618 202.970,202.424 203.063,202.552 202.698 C 202.744 202.153,202.018 202.044,196.707 201.815 C 192.799 201.646,189.374 201.261,187.072 200.731 C 184.111 200.049,183.445 199.999,183.173 200.439 C 182.898 200.885,182.764 200.883,182.340 200.428 C 181.963 200.022,181.959 199.955,182.324 200.161 C 182.593 200.313,182.813 200.274,182.813 200.075 C 182.813 199.877,181.714 199.321,180.371 198.841 C 176.225 197.357,171.807 195.044,168.848 192.805 C 167.290 191.628,166.009 190.787,166.002 190.937 C 165.994 191.088,165.774 190.831,165.514 190.367 C 165.253 189.903,163.940 188.352,162.598 186.921 C 161.255 185.490,160.156 184.126,160.156 183.891 C 160.156 183.656,160.050 183.570,159.921 183.699 C 159.486 184.134,161.361 188.993,162.856 191.305 C 166.612 197.117,173.114 201.839,181.009 204.489 C 183.765 205.414,185.874 205.806,184.180 205.078 C 183.603 204.830,183.922 204.735,185.401 204.715 C 187.517 204.686,189.466 205.812,187.450 205.899 C 185.761 205.972,189.009 206.573,193.819 207.078 C 197.389 207.452,199.425 207.455,203.194 207.088 C 207.694 206.650,214.820 205.227,213.086 205.112 C 212.361 205.064,212.375 205.005,213.281 204.283 C 213.997 203.713,214.058 203.577,213.510 203.772 C 212.992 203.957,212.849 203.898,213.045 203.582 C 213.389 203.025,215.234 202.969,215.234 203.516 C 215.234 203.730,215.542 203.920,215.918 203.936 C 216.294 203.952,215.986 204.203,215.234 204.492 C 214.482 204.782,214.077 205.032,214.333 205.048 C 215.322 205.111,220.360 203.005,219.900 202.721 C 219.308 202.355,220.780 201.341,222.461 200.957 C 223.600 200.696,223.611 200.707,222.852 201.349 C 222.340 201.782,222.632 201.712,223.695 201.149 C 225.927 199.964,229.102 197.522,229.102 196.989 C 229.102 196.747,229.262 196.403,229.457 196.224 C 229.664 196.035,229.695 196.103,229.532 196.387 C 229.377 196.655,229.421 196.875,229.630 196.875 C 230.252 196.875,232.057 194.499,231.778 194.047 C 231.631 193.809,231.703 193.742,231.947 193.893 C 233.164 194.645,238.476 183.704,237.756 181.926 C 237.649 181.662,237.548 181.849,237.531 182.342 M121.430 184.398 L 120.508 185.203 121.680 184.516 C 123.222 183.613,123.245 183.594,122.765 183.594 C 122.538 183.594,121.937 183.956,121.430 184.398 M288.384 186.999 C 288.978 187.089,289.857 187.086,290.337 186.994 C 290.818 186.901,290.332 186.828,289.258 186.830 C 288.184 186.833,287.791 186.909,288.384 186.999 M118.206 188.509 C 117.313 190.836,119.285 197.256,120.392 195.624 C 120.636 195.264,120.703 195.343,120.622 195.898 C 120.462 196.991,123.409 198.440,125.766 198.429 C 130.365 198.407,133.643 195.070,133.555 190.502 C 133.529 189.184,133.427 188.784,133.262 189.357 C 131.943 193.925,124.646 195.188,120.368 191.588 C 119.690 191.018,118.955 190.694,118.699 190.852 C 118.364 191.059,118.299 190.697,118.458 189.513 C 118.687 187.809,118.603 187.475,118.206 188.509 M268.390 188.318 C 268.373 188.661,268.755 189.276,269.238 189.686 C 270.110 190.423,270.112 190.423,269.485 189.648 C 269.137 189.219,268.755 188.604,268.636 188.281 C 268.454 187.784,268.416 187.790,268.390 188.318 M239.834 189.867 C 239.556 190.538,238.648 192.169,237.816 193.493 C 236.961 194.853,236.732 195.389,237.289 194.727 C 238.447 193.348,240.781 189.088,240.520 188.827 C 240.421 188.728,240.112 189.196,239.834 189.867 M137.599 190.820 C 137.603 191.680,137.683 191.985,137.776 191.499 C 137.870 191.013,137.866 190.310,137.768 189.937 C 137.671 189.563,137.594 189.961,137.599 190.820 M165.189 191.183 C 165.604 191.440,166.038 192.955,165.683 192.909 C 164.836 192.799,164.861 193.066,165.764 193.775 C 166.328 194.219,166.955 194.480,167.157 194.355 C 167.359 194.230,167.635 194.307,167.769 194.525 C 168.173 195.177,168.854 194.974,168.588 194.281 C 168.383 193.746,168.440 193.721,168.932 194.130 C 169.778 194.832,169.236 195.421,168.024 195.117 L 166.992 194.858 167.813 195.769 C 169.236 197.348,169.352 197.894,168.029 196.786 C 164.000 193.410,161.813 189.097,165.189 191.183 M271.858 192.871 C 272.584 193.784,273.248 194.531,273.334 194.531 C 273.610 194.531,271.936 192.333,271.225 191.762 C 270.848 191.459,271.133 191.958,271.858 192.871 M280.966 194.531 C 280.966 195.498,281.042 195.894,281.135 195.410 C 281.228 194.927,281.228 194.136,281.135 193.652 C 281.042 193.169,280.966 193.564,280.966 194.531 M160.148 195.301 C 160.602 195.939,161.173 196.584,161.417 196.735 C 161.661 196.885,161.368 196.363,160.767 195.575 C 159.461 193.863,158.969 193.645,160.148 195.301 M274.100 196.284 C 274.457 197.033,274.819 197.577,274.904 197.492 C 275.082 197.314,273.896 194.922,273.629 194.922 C 273.531 194.922,273.742 195.535,274.100 196.284 M233.582 198.649 C 232.192 200.054,230.132 201.841,229.004 202.620 C 226.712 204.203,226.306 204.710,228.191 203.635 C 229.379 202.958,236.742 196.138,236.317 196.108 C 236.203 196.100,234.973 197.244,233.582 198.649 M134.354 198.730 L 133.008 200.195 134.473 198.849 C 135.278 198.109,135.938 197.450,135.938 197.384 C 135.938 197.086,135.607 197.367,134.354 198.730 M163.086 198.828 C 163.925 199.688,164.700 200.391,164.807 200.391 C 164.914 200.391,164.316 199.688,163.477 198.828 C 162.637 197.969,161.863 197.266,161.756 197.266 C 161.648 197.266,162.247 197.969,163.086 198.828 M116.016 197.778 C 116.016 197.846,116.587 198.417,117.285 199.048 L 118.555 200.195 117.407 198.926 C 116.338 197.742,116.016 197.477,116.016 197.778 M275.279 199.219 C 275.416 199.971,275.651 201.289,275.801 202.148 L 276.074 203.711 276.093 202.344 C 276.103 201.592,275.869 200.273,275.571 199.414 C 275.046 197.896,275.038 197.891,275.279 199.219 M118.094 202.734 C 118.094 204.131,118.165 204.702,118.251 204.004 C 118.338 203.306,118.338 202.163,118.251 201.465 C 118.165 200.767,118.094 201.338,118.094 202.734 M166.750 201.901 C 167.690 202.741,169.185 203.806,170.070 204.268 C 170.955 204.729,171.344 204.881,170.934 204.604 C 170.524 204.328,169.030 203.263,167.614 202.237 C 165.262 200.534,165.187 200.505,166.750 201.901 M291.968 203.223 L 290.820 204.492 292.090 203.345 C 293.273 202.275,293.539 201.953,293.237 201.953 C 293.170 201.953,292.599 202.524,291.968 203.223 M180.603 203.396 C 181.213 203.708,181.632 204.045,181.532 204.145 C 181.349 204.328,177.312 202.844,176.953 202.461 C 176.597 202.081,179.472 202.818,180.603 203.396 M280.559 204.688 C 280.559 205.439,280.640 205.747,280.738 205.371 C 280.836 204.995,280.836 204.380,280.738 204.004 C 280.640 203.628,280.559 203.936,280.559 204.688 M151.625 205.024 C 150.960 205.600,150.791 206.161,150.825 207.663 L 150.869 209.570 151.313 207.503 C 151.558 206.367,152.016 205.278,152.332 205.083 C 152.648 204.889,152.808 204.631,152.688 204.511 C 152.568 204.390,152.089 204.621,151.625 205.024 M225.293 204.911 C 223.833 205.703,223.922 206.033,225.391 205.273 C 226.035 204.940,226.563 204.584,226.563 204.482 C 226.563 204.231,226.521 204.245,225.293 204.911 M221.484 206.836 C 220.947 207.143,220.684 207.394,220.898 207.394 C 221.113 207.394,221.729 207.143,222.266 206.836 C 222.803 206.529,223.066 206.278,222.852 206.278 C 222.637 206.278,222.021 206.529,221.484 206.836 M138.672 208.008 C 139.401 208.760,140.085 209.375,140.192 209.375 C 140.300 209.375,139.791 208.760,139.063 208.008 C 138.334 207.256,137.649 206.641,137.542 206.641 C 137.435 206.641,137.943 207.256,138.672 208.008 M198.340 206.920 C 197.749 207.010,196.782 207.010,196.191 206.920 C 195.601 206.831,196.084 206.758,197.266 206.758 C 198.447 206.758,198.931 206.831,198.340 206.920 M121.603 208.885 C 123.925 208.955,127.616 208.954,129.806 208.885 C 131.997 208.815,130.098 208.759,125.586 208.759 C 121.074 208.759,119.282 208.816,121.603 208.885 M275.078 210.039 C 274.834 210.834,274.699 211.548,274.778 211.627 C 274.857 211.706,275.133 211.132,275.391 210.352 C 275.648 209.571,275.783 208.856,275.690 208.763 C 275.597 208.670,275.322 209.245,275.078 210.039 M214.258 209.375 C 213.765 209.587,213.693 209.711,214.063 209.711 C 214.385 209.711,215.000 209.560,215.430 209.375 C 215.922 209.163,215.994 209.039,215.625 209.039 C 215.303 209.039,214.688 209.190,214.258 209.375 M109.375 211.133 C 108.426 212.100,107.738 212.891,107.845 212.891 C 107.953 212.891,108.817 212.100,109.766 211.133 C 110.714 210.166,111.403 209.375,111.295 209.375 C 111.188 209.375,110.324 210.166,109.375 211.133 M142.969 212.695 C 144.136 213.877,145.178 214.844,145.286 214.844 C 145.393 214.844,144.526 213.877,143.359 212.695 C 142.192 211.514,141.150 210.547,141.042 210.547 C 140.935 210.547,141.802 211.514,142.969 212.695 M151.988 210.882 C 151.968 211.187,151.705 211.316,151.367 211.187 C 150.682 210.924,150.505 213.065,151.178 213.481 C 151.397 213.615,151.474 213.889,151.351 214.089 C 151.016 214.632,152.490 214.529,153.145 213.965 C 153.612 213.562,153.631 213.570,153.253 214.012 C 152.489 214.907,153.067 215.799,153.914 215.032 C 154.555 214.452,154.703 214.489,155.916 215.544 C 156.637 216.170,157.636 216.897,158.136 217.160 C 158.674 217.443,158.958 217.865,158.832 218.194 C 158.692 218.559,158.883 218.750,159.387 218.750 C 160.575 218.750,160.303 218.121,158.691 217.145 C 157.886 216.656,156.373 215.500,155.329 214.574 C 154.285 213.648,153.279 212.891,153.094 212.891 C 152.908 212.891,152.592 212.319,152.390 211.621 C 152.189 210.923,152.008 210.590,151.988 210.882 M190.918 211.213 C 191.401 211.306,192.192 211.306,192.676 211.213 C 193.159 211.120,192.764 211.044,191.797 211.044 C 190.830 211.044,190.435 211.120,190.918 211.213 M204.785 211.207 C 205.161 211.305,205.776 211.305,206.152 211.207 C 206.528 211.109,206.221 211.028,205.469 211.028 C 204.717 211.028,204.409 211.109,204.785 211.207 M113.068 212.988 L 111.523 214.648 113.184 213.104 C 114.728 211.668,115.023 211.328,114.728 211.328 C 114.664 211.328,113.917 212.075,113.068 212.988 M196.790 211.617 C 197.926 211.696,199.683 211.695,200.697 211.615 C 201.710 211.535,200.781 211.470,198.633 211.471 C 196.484 211.472,195.655 211.537,196.790 211.617 M105.057 215.918 L 103.711 217.383 105.176 216.037 C 106.539 214.784,106.820 214.453,106.522 214.453 C 106.457 214.453,105.797 215.112,105.057 215.918 M272.610 215.376 C 272.220 216.231,272.999 218.750,273.653 218.750 C 273.760 218.750,273.563 218.198,273.214 217.524 C 272.723 216.575,272.675 216.090,273.000 215.376 C 273.232 214.868,273.333 214.453,273.225 214.453 C 273.118 214.453,272.841 214.868,272.610 215.376 M109.155 217.285 L 108.008 218.555 109.277 217.407 C 110.461 216.338,110.726 216.016,110.425 216.016 C 110.357 216.016,109.786 216.587,109.155 217.285 M275.682 225.586 C 275.797 227.090,275.954 228.394,276.031 228.483 C 276.303 228.797,276.091 224.794,275.784 223.828 C 275.604 223.261,275.562 223.997,275.682 225.586 M115.527 228.401 C 116.011 228.494,116.802 228.494,117.285 228.401 C 117.769 228.308,117.373 228.231,116.406 228.231 C 115.439 228.231,115.044 228.308,115.527 228.401 M130.584 228.416 C 132.259 228.489,134.896 228.489,136.444 228.415 C 137.991 228.341,136.621 228.281,133.398 228.281 C 130.176 228.282,128.909 228.342,130.584 228.416 M147.526 228.385 C 147.383 228.529,147.268 228.836,147.272 229.069 C 147.276 229.350,147.374 229.342,147.565 229.043 C 147.722 228.796,148.291 228.513,148.828 228.413 L 149.805 228.231 148.796 228.178 C 148.241 228.149,147.669 228.242,147.526 228.385 M123.580 232.227 C 123.581 234.375,123.647 235.204,123.726 234.069 C 123.805 232.934,123.804 231.176,123.724 230.163 C 123.644 229.149,123.579 230.078,123.580 232.227 M275.880 230.273 C 275.884 231.133,275.964 231.438,276.058 230.952 C 276.151 230.467,276.147 229.763,276.050 229.390 C 275.952 229.017,275.875 229.414,275.880 230.273 M273.816 236.627 C 273.286 237.628,271.894 239.508,270.724 240.805 L 268.597 243.164 270.547 241.304 C 272.372 239.564,275.308 235.335,274.945 234.971 C 274.855 234.881,274.347 235.626,273.816 236.627 M274.005 243.848 L 272.461 245.508 274.121 243.964 C 275.034 243.114,275.781 242.367,275.781 242.304 C 275.781 242.008,275.441 242.304,274.005 243.848 M165.137 244.019 C 164.393 244.214,164.307 244.478,164.757 245.185 C 164.952 245.492,165.196 245.331,165.495 244.697 C 165.741 244.176,165.915 243.770,165.881 243.795 C 165.848 243.820,165.513 243.921,165.137 244.019 M265.698 249.023 C 265.653 250.527,265.533 252.461,265.431 253.320 L 265.246 254.883 265.646 253.320 C 265.865 252.461,265.985 250.527,265.913 249.023 L 265.780 246.289 265.698 249.023 M270.077 247.033 C 269.962 247.335,269.928 248.170,270.003 248.889 C 270.123 250.034,270.163 249.967,270.327 248.340 C 270.518 246.437,270.448 246.068,270.077 247.033 M142.842 254.199 C 142.746 254.360,142.570 255.283,142.450 256.250 L 142.231 258.008 142.668 256.250 C 142.907 255.283,143.293 254.363,143.524 254.205 C 143.814 254.008,143.800 253.916,143.480 253.912 C 143.224 253.909,142.937 254.038,142.842 254.199 M123.500 257.737 L 123.438 259.418 118.396 259.299 C 115.623 259.233,113.436 259.312,113.536 259.473 C 113.636 259.634,115.910 259.766,118.590 259.766 C 123.941 259.766,124.014 259.732,123.723 257.361 C 123.580 256.198,123.556 256.240,123.500 257.737 M263.553 258.794 C 263.196 259.543,262.984 260.156,263.082 260.156 C 263.350 260.156,264.535 257.764,264.357 257.586 C 264.272 257.501,263.910 258.045,263.553 258.794 M137.891 258.713 C 137.891 259.269,137.186 259.369,132.520 259.474 L 127.148 259.594 132.532 259.680 C 137.808 259.764,139.234 259.417,138.134 258.316 C 138.000 258.183,137.891 258.361,137.891 258.713 M141.920 258.954 C 141.960 259.474,142.256 259.971,142.578 260.058 C 142.965 260.162,143.014 260.106,142.721 259.893 C 142.477 259.716,142.181 259.219,142.063 258.789 C 141.893 258.173,141.863 258.208,141.920 258.954 M148.537 259.360 C 148.175 259.941,148.202 260.132,148.671 260.312 C 149.059 260.461,149.169 260.373,148.994 260.054 C 148.849 259.788,149.198 260.054,149.771 260.645 C 150.344 261.235,151.025 261.713,151.285 261.706 C 151.545 261.699,151.362 261.363,150.879 260.960 C 150.396 260.556,150.000 260.056,150.000 259.848 C 150.000 258.965,148.994 258.629,148.537 259.360 M144.087 260.788 C 144.583 261.135,145.325 261.970,145.735 262.643 C 146.146 263.316,146.482 263.654,146.483 263.392 C 146.485 262.764,144.180 260.156,143.623 260.156 C 143.382 260.156,143.591 260.440,144.087 260.788 M146.490 261.621 C 146.502 262.189,147.180 262.984,147.530 262.841 C 147.725 262.761,147.569 262.388,147.184 262.012 C 146.799 261.636,146.487 261.460,146.490 261.621 M260.058 263.667 C 259.037 264.726,257.412 266.056,256.445 266.622 C 254.643 267.679,253.989 268.360,255.566 267.538 C 257.377 266.595,260.096 264.410,261.105 263.088 C 262.514 261.241,262.263 261.379,260.058 263.667 M149.089 262.784 C 148.802 263.249,150.272 263.921,150.680 263.512 C 150.808 263.385,150.633 263.281,150.293 263.281 C 149.953 263.281,149.604 263.070,149.518 262.812 C 149.404 262.471,149.288 262.463,149.089 262.784 M109.325 263.965 C 108.854 264.565,108.863 264.591,109.394 264.177 C 109.727 263.918,111.485 263.646,113.301 263.573 L 116.602 263.440 113.231 263.361 C 110.425 263.295,109.772 263.396,109.325 263.965 M131.413 263.574 C 138.695 263.654,141.711 263.821,142.156 264.167 C 142.701 264.592,142.711 264.569,142.237 263.965 C 141.748 263.341,140.815 263.289,131.495 263.372 L 121.289 263.463 131.413 263.574 M146.596 265.820 C 146.599 266.895,146.675 267.288,146.765 266.694 C 146.854 266.100,146.852 265.221,146.759 264.741 C 146.667 264.260,146.593 264.746,146.596 265.820 M262.891 266.992 C 261.942 267.959,261.253 268.750,261.361 268.750 C 261.468 268.750,262.332 267.959,263.281 266.992 C 264.230 266.025,264.919 265.234,264.811 265.234 C 264.704 265.234,263.839 266.025,262.891 266.992 M241.423 271.909 C 240.750 273.001,240.375 273.787,240.589 273.655 C 240.804 273.522,241.367 272.724,241.841 271.880 C 242.678 270.391,242.772 270.343,245.082 270.209 L 247.461 270.072 245.053 269.997 L 242.645 269.922 241.423 271.909 M144.124 272.363 C 145.743 274.088,146.094 274.398,146.094 274.105 C 146.094 274.042,145.259 273.207,144.238 272.249 L 142.383 270.508 144.124 272.363 M117.312 271.386 C 121.999 271.449,129.558 271.449,134.108 271.386 C 138.659 271.324,134.824 271.273,125.586 271.273 C 116.348 271.273,112.624 271.324,117.312 271.386 M158.878 274.501 C 159.571 274.587,160.802 274.588,161.612 274.504 C 162.423 274.419,161.855 274.349,160.352 274.347 C 158.848 274.345,158.185 274.414,158.878 274.501 M243.744 276.182 C 239.655 282.553,231.100 286.750,223.355 286.184 C 219.817 285.926,219.931 285.819,220.304 289.063 C 220.465 290.459,220.620 291.412,220.650 291.181 C 220.683 290.921,221.936 290.748,223.926 290.730 C 228.066 290.693,234.089 289.219,237.854 287.323 C 239.424 286.533,240.980 285.990,241.313 286.118 C 241.656 286.250,242.305 285.987,242.809 285.513 L 243.700 284.676 243.484 285.502 C 243.365 285.956,243.371 286.328,243.496 286.328 C 243.751 286.328,247.266 275.502,247.266 274.718 C 247.266 273.292,244.991 274.237,243.744 276.182 M166.016 275.977 C 166.520 276.514,166.999 276.953,167.079 276.953 C 167.403 276.953,165.793 275.024,165.459 275.012 C 165.261 275.006,165.511 275.439,166.016 275.977 M236.719 277.576 C 234.597 279.262,234.325 279.539,235.352 278.969 C 236.253 278.468,238.964 276.196,238.672 276.186 C 238.564 276.182,237.686 276.808,236.719 277.576 M167.188 277.466 C 167.188 277.563,167.833 278.134,168.622 278.735 C 169.410 279.337,169.932 279.630,169.782 279.386 C 169.473 278.886,167.188 277.195,167.188 277.466 M158.032 281.543 C 158.549 283.208,158.975 284.690,158.979 284.836 C 158.982 284.981,160.101 285.018,161.467 284.917 C 163.872 284.739,164.003 284.778,165.666 286.176 C 168.994 288.974,175.342 291.016,180.715 291.016 C 182.209 291.016,182.428 291.125,182.474 291.895 C 182.533 292.888,183.116 289.445,183.169 287.793 L 183.203 286.719 180.327 286.719 C 174.158 286.719,169.184 284.810,165.076 280.866 L 162.629 278.516 159.860 278.516 L 157.092 278.516 158.032 281.543 M170.313 279.880 C 170.313 280.145,173.485 281.723,173.662 281.546 C 173.744 281.464,173.024 281.015,172.062 280.548 C 171.100 280.080,170.313 279.780,170.313 279.880 M213.260 281.543 L 211.914 283.008 213.472 281.641 C 214.329 280.889,215.106 280.229,215.198 280.176 C 215.289 280.122,215.194 280.078,214.985 280.078 C 214.777 280.078,214.001 280.737,213.260 281.543 M188.477 280.748 C 188.906 280.852,189.609 281.236,190.039 281.601 C 191.696 283.007,192.304 283.246,190.820 281.908 C 189.961 281.132,188.906 280.512,188.477 280.529 L 187.695 280.559 188.477 280.748 M230.496 280.897 C 229.975 281.106,228.656 281.441,227.567 281.641 L 225.586 282.005 227.577 281.849 C 228.672 281.762,230.166 281.431,230.897 281.112 C 232.360 280.474,232.016 280.290,230.496 280.897 M184.766 281.691 C 183.499 282.134,183.121 282.366,183.845 282.255 C 185.051 282.071,188.070 280.915,187.305 280.931 C 187.090 280.936,185.947 281.278,184.766 281.691 M175.000 282.056 C 175.537 282.295,177.383 282.552,179.102 282.628 L 182.227 282.766 179.297 282.442 C 177.686 282.264,175.840 282.007,175.195 281.871 C 174.070 281.632,174.062 281.640,175.000 282.056 M221.191 281.910 C 221.567 282.008,222.183 282.008,222.559 281.910 C 222.935 281.812,222.627 281.731,221.875 281.731 C 221.123 281.731,220.815 281.812,221.191 281.910 M193.141 283.770 C 194.064 284.506,197.822 285.945,198.745 285.916 C 199.113 285.905,198.447 285.584,197.266 285.202 C 196.084 284.821,194.502 284.207,193.750 283.837 C 192.686 283.314,192.551 283.299,193.141 283.770 M208.984 284.375 C 208.232 284.787,207.758 285.131,207.930 285.140 C 208.344 285.162,210.547 284.016,210.547 283.779 C 210.547 283.523,210.524 283.532,208.984 284.375 M214.794 285.840 C 214.313 286.453,214.326 286.470,214.911 286.012 C 215.477 285.570,215.588 285.622,215.737 286.403 C 215.890 287.204,215.915 287.185,215.962 286.230 C 216.023 285.000,215.571 284.849,214.794 285.840 M200.684 286.220 C 201.382 286.307,202.524 286.307,203.223 286.220 C 203.921 286.133,203.350 286.063,201.953 286.063 C 200.557 286.063,199.985 286.133,200.684 286.220 M187.200 288.672 C 187.200 289.424,187.280 289.731,187.379 289.355 C 187.477 288.979,187.477 288.364,187.379 287.988 C 187.280 287.612,187.200 287.920,187.200 288.672 M200.879 290.514 C 201.470 290.604,202.437 290.604,203.027 290.514 C 203.618 290.425,203.135 290.351,201.953 290.351 C 200.771 290.351,200.288 290.425,200.879 290.514 M240.021 300.488 L 238.477 302.148 240.137 300.604 C 241.681 299.168,241.976 298.828,241.681 298.828 C 241.617 298.828,240.870 299.575,240.021 300.488 " stroke="none" fill="#dcb5a5" fill-rule="evenodd"></path></g></svg>